%TF.GenerationSoftware,KiCad,Pcbnew,9.0.6*%
%TF.CreationDate,2026-02-17T17:24:44+05:30*%
%TF.ProjectId,blinky,626c696e-6b79-42e6-9b69-6361645f7063,rev?*%
%TF.SameCoordinates,Original*%
%TF.FileFunction,Copper,L2,Bot*%
%TF.FilePolarity,Positive*%
%FSLAX46Y46*%
G04 Gerber Fmt 4.6, Leading zero omitted, Abs format (unit mm)*
G04 Created by KiCad (PCBNEW 9.0.6) date 2026-02-17 17:24:44*
%MOMM*%
%LPD*%
G01*
G04 APERTURE LIST*
G04 Aperture macros list*
%AMRoundRect*
0 Rectangle with rounded corners*
0 $1 Rounding radius*
0 $2 $3 $4 $5 $6 $7 $8 $9 X,Y pos of 4 corners*
0 Add a 4 corners polygon primitive as box body*
4,1,4,$2,$3,$4,$5,$6,$7,$8,$9,$2,$3,0*
0 Add four circle primitives for the rounded corners*
1,1,$1+$1,$2,$3*
1,1,$1+$1,$4,$5*
1,1,$1+$1,$6,$7*
1,1,$1+$1,$8,$9*
0 Add four rect primitives between the rounded corners*
20,1,$1+$1,$2,$3,$4,$5,0*
20,1,$1+$1,$4,$5,$6,$7,0*
20,1,$1+$1,$6,$7,$8,$9,0*
20,1,$1+$1,$8,$9,$2,$3,0*%
G04 Aperture macros list end*
%TA.AperFunction,ComponentPad*%
%ADD10C,1.800000*%
%TD*%
%TA.AperFunction,ComponentPad*%
%ADD11R,1.800000X1.800000*%
%TD*%
%TA.AperFunction,ComponentPad*%
%ADD12C,1.650000*%
%TD*%
%TA.AperFunction,ComponentPad*%
%ADD13RoundRect,0.412500X-0.412500X-0.412500X0.412500X-0.412500X0.412500X0.412500X-0.412500X0.412500X0*%
%TD*%
%TA.AperFunction,ComponentPad*%
%ADD14C,1.600000*%
%TD*%
%TA.AperFunction,ComponentPad*%
%ADD15C,2.000000*%
%TD*%
%TA.AperFunction,ComponentPad*%
%ADD16RoundRect,0.250000X-0.550000X-0.550000X0.550000X-0.550000X0.550000X0.550000X-0.550000X0.550000X0*%
%TD*%
%TA.AperFunction,ComponentPad*%
%ADD17C,1.700000*%
%TD*%
%TA.AperFunction,ComponentPad*%
%ADD18R,1.700000X1.700000*%
%TD*%
%TA.AperFunction,Conductor*%
%ADD19C,0.200000*%
%TD*%
G04 APERTURE END LIST*
D10*
%TO.P,D5,2,A*%
%TO.N,Net-(D5-A)*%
X133985000Y-124460000D03*
D11*
%TO.P,D5,1,K*%
%TO.N,Net-(D1-K)*%
X131445000Y-124460000D03*
%TD*%
D10*
%TO.P,D9,2,A*%
%TO.N,Net-(D9-A)*%
X175895000Y-72390000D03*
D11*
%TO.P,D9,1,K*%
%TO.N,Net-(D1-K)*%
X173355000Y-72390000D03*
%TD*%
D12*
%TO.P,RV1,3,3*%
%TO.N,TR*%
X163195000Y-103505000D03*
%TO.P,RV1,2,2*%
%TO.N,Net-(U1-DIS)*%
X160655000Y-103505000D03*
D13*
%TO.P,RV1,1,1*%
X158115000Y-103505000D03*
%TD*%
D10*
%TO.P,D7,2,A*%
%TO.N,Net-(D7-A)*%
X188595000Y-105410000D03*
D11*
%TO.P,D7,1,K*%
%TO.N,Net-(D1-K)*%
X186055000Y-105410000D03*
%TD*%
D10*
%TO.P,D8,2,A*%
%TO.N,Net-(D8-A)*%
X192405000Y-85090000D03*
D11*
%TO.P,D8,1,K*%
%TO.N,Net-(D1-K)*%
X189865000Y-85090000D03*
%TD*%
D10*
%TO.P,D10,2,A*%
%TO.N,Net-(D10-A)*%
X163830000Y-81280000D03*
D11*
%TO.P,D10,1,K*%
%TO.N,Net-(D1-K)*%
X161290000Y-81280000D03*
%TD*%
D14*
%TO.P,R1,2*%
%TO.N,Net-(U1-DIS)*%
X152400000Y-114300000D03*
%TO.P,R1,1*%
%TO.N,+5V*%
X144780000Y-114300000D03*
%TD*%
D10*
%TO.P,D1,2,A*%
%TO.N,Net-(D1-A)*%
X146050000Y-81280000D03*
D11*
%TO.P,D1,1,K*%
%TO.N,Net-(D1-K)*%
X143510000Y-81280000D03*
%TD*%
D10*
%TO.P,D3,2,A*%
%TO.N,Net-(D3-A)*%
X115570000Y-85090000D03*
D11*
%TO.P,D3,1,K*%
%TO.N,Net-(D1-K)*%
X113030000Y-85090000D03*
%TD*%
D10*
%TO.P,D2,2,A*%
%TO.N,Net-(D2-A)*%
X129540000Y-72390000D03*
D11*
%TO.P,D2,1,K*%
%TO.N,Net-(D1-K)*%
X127000000Y-72390000D03*
%TD*%
D15*
%TO.P,C2,2*%
%TO.N,Net-(U1-CV)*%
X163155000Y-95250000D03*
%TO.P,C2,1*%
%TO.N,GND*%
X158155000Y-95250000D03*
%TD*%
D14*
%TO.P,C1,2*%
%TO.N,GND*%
X152400000Y-140335000D03*
D16*
%TO.P,C1,1*%
%TO.N,TR*%
X150400000Y-140335000D03*
%TD*%
D14*
%TO.P,R2,2*%
%TO.N,GND*%
X163830000Y-114300000D03*
%TO.P,R2,1*%
%TO.N,Net-(D1-K)*%
X156210000Y-114300000D03*
%TD*%
D10*
%TO.P,D4,2,A*%
%TO.N,Net-(D4-A)*%
X119380000Y-105410000D03*
D11*
%TO.P,D4,1,K*%
%TO.N,Net-(D1-K)*%
X116840000Y-105410000D03*
%TD*%
D14*
%TO.P,U1,8,VCC*%
%TO.N,+5V*%
X152400000Y-99060000D03*
%TO.P,U1,7,DIS*%
%TO.N,Net-(U1-DIS)*%
X152400000Y-101600000D03*
%TO.P,U1,6,THR*%
%TO.N,TR*%
X152400000Y-104140000D03*
%TO.P,U1,5,CV*%
%TO.N,Net-(U1-CV)*%
X152400000Y-106680000D03*
%TO.P,U1,4,R*%
%TO.N,+5V*%
X144780000Y-106680000D03*
%TO.P,U1,3,Q*%
%TO.N,OUT*%
X144780000Y-104140000D03*
%TO.P,U1,2,TR*%
%TO.N,TR*%
X144780000Y-101600000D03*
D16*
%TO.P,U1,1,GND*%
%TO.N,GND*%
X144780000Y-99060000D03*
%TD*%
D10*
%TO.P,D6,2,A*%
%TO.N,Net-(D6-A)*%
X173355000Y-124460000D03*
D11*
%TO.P,D6,1,K*%
%TO.N,Net-(D1-K)*%
X170815000Y-124460000D03*
%TD*%
D17*
%TO.P,J1,2,Pin_2*%
%TO.N,GND*%
X153035000Y-130805000D03*
D18*
%TO.P,J1,1,Pin_1*%
%TO.N,+5V*%
X153035000Y-128265000D03*
%TD*%
D16*
%TO.P,U2,1,Q5*%
%TO.N,Net-(D5-A)*%
X130815000Y-92710000D03*
D14*
%TO.P,U2,2,Q1*%
%TO.N,Net-(D9-A)*%
X130815000Y-95250000D03*
%TO.P,U2,3,Q0*%
%TO.N,Net-(D10-A)*%
X130815000Y-97790000D03*
%TO.P,U2,4,Q2*%
%TO.N,Net-(D8-A)*%
X130815000Y-100330000D03*
%TO.P,U2,5,Q6*%
%TO.N,Net-(D4-A)*%
X130815000Y-102870000D03*
%TO.P,U2,6,Q7*%
%TO.N,Net-(D3-A)*%
X130815000Y-105410000D03*
%TO.P,U2,7,Q3*%
%TO.N,Net-(D7-A)*%
X130815000Y-107950000D03*
%TO.P,U2,8,VSS*%
%TO.N,GND*%
X130815000Y-110490000D03*
%TO.P,U2,9,Q8*%
%TO.N,Net-(D2-A)*%
X138435000Y-110490000D03*
%TO.P,U2,10,Q4*%
%TO.N,Net-(D6-A)*%
X138435000Y-107950000D03*
%TO.P,U2,11,Q9*%
%TO.N,Net-(D1-A)*%
X138435000Y-105410000D03*
%TO.P,U2,12,Cout*%
%TO.N,unconnected-(U2-Cout-Pad12)*%
X138435000Y-102870000D03*
%TO.P,U2,13,CKEN*%
%TO.N,GND*%
X138435000Y-100330000D03*
%TO.P,U2,14,CLK*%
%TO.N,OUT*%
X138435000Y-97790000D03*
%TO.P,U2,15,Reset*%
%TO.N,GND*%
X138435000Y-95250000D03*
%TO.P,U2,16,VDD*%
%TO.N,+5V*%
X138435000Y-92710000D03*
%TD*%
D19*
%TO.N,GND*%
X168708471Y-130805000D02*
X153035000Y-130805000D01*
X158155000Y-95250000D02*
X161848800Y-98943800D01*
%TO.N,Net-(U1-DIS)*%
X158115000Y-103505000D02*
X154305000Y-103505000D01*
%TO.N,TR*%
X150400000Y-140335000D02*
X137334000Y-127269000D01*
%TO.N,Net-(U1-DIS)*%
X154305000Y-103505000D02*
X152400000Y-101600000D01*
%TO.N,OUT*%
X152856050Y-105241000D02*
X145881000Y-105241000D01*
X145881000Y-105241000D02*
X144780000Y-104140000D01*
%TO.N,GND*%
X152400000Y-140335000D02*
X152400000Y-131440000D01*
%TO.N,TR*%
X137334000Y-107493950D02*
X137978950Y-106849000D01*
%TO.N,OUT*%
X138435000Y-97790000D02*
X141144000Y-100499000D01*
%TO.N,Net-(U1-DIS)*%
X158115000Y-103505000D02*
X160655000Y-103505000D01*
%TO.N,+5V*%
X153035000Y-128265000D02*
X153035000Y-122555000D01*
%TO.N,TR*%
X137978950Y-106849000D02*
X139531000Y-106849000D01*
X139531000Y-106849000D02*
X144780000Y-101600000D01*
%TO.N,OUT*%
X153501000Y-103683950D02*
X153501000Y-104596050D01*
%TO.N,GND*%
X174556000Y-124957471D02*
X168708471Y-130805000D01*
%TO.N,Net-(U1-DIS)*%
X154305000Y-112395000D02*
X152400000Y-114300000D01*
%TO.N,TR*%
X137334000Y-127269000D02*
X137334000Y-107493950D01*
%TO.N,OUT*%
X152856050Y-103039000D02*
X153501000Y-103683950D01*
%TO.N,+5V*%
X153035000Y-122555000D02*
X144780000Y-114300000D01*
%TO.N,GND*%
X161848800Y-98943800D02*
X161848800Y-112318800D01*
X161848800Y-112318800D02*
X163830000Y-114300000D01*
%TO.N,TR*%
X149860000Y-101600000D02*
X152400000Y-104140000D01*
%TO.N,GND*%
X152400000Y-131440000D02*
X153035000Y-130805000D01*
X174556000Y-123894630D02*
X174556000Y-124957471D01*
%TO.N,Net-(U1-DIS)*%
X154305000Y-103505000D02*
X154305000Y-112395000D01*
%TO.N,OUT*%
X151943950Y-103039000D02*
X152856050Y-103039000D01*
X149403950Y-100499000D02*
X151943950Y-103039000D01*
X153501000Y-104596050D02*
X152856050Y-105241000D01*
X141144000Y-100499000D02*
X149403950Y-100499000D01*
%TO.N,GND*%
X158155000Y-95250000D02*
X148590000Y-95250000D01*
X163830000Y-114300000D02*
X164961370Y-114300000D01*
X164961370Y-114300000D02*
X174556000Y-123894630D01*
X148590000Y-95250000D02*
X144780000Y-99060000D01*
%TO.N,TR*%
X144780000Y-101600000D02*
X149860000Y-101600000D01*
%TO.N,Net-(D6-A)*%
X172154000Y-125661000D02*
X173355000Y-124460000D01*
%TO.N,Net-(D7-A)*%
X136933000Y-128754160D02*
X149614840Y-141436000D01*
%TO.N,Net-(D9-A)*%
X157886400Y-81478671D02*
X157886400Y-77800200D01*
X162179000Y-77800200D02*
X170891200Y-69088000D01*
%TO.N,Net-(D7-A)*%
X158644571Y-141436000D02*
X188595000Y-111485571D01*
%TO.N,Net-(D6-A)*%
X144145000Y-107950000D02*
X161856000Y-125661000D01*
%TO.N,Net-(D8-A)*%
X137196000Y-93949000D02*
X183546000Y-93949000D01*
%TO.N,Net-(D9-A)*%
X153106671Y-86258400D02*
X157886400Y-81478671D01*
X130815000Y-95250000D02*
X139806600Y-86258400D01*
%TO.N,Net-(D7-A)*%
X188595000Y-111485571D02*
X188595000Y-105410000D01*
%TO.N,Net-(D9-A)*%
X139806600Y-86258400D02*
X153106671Y-86258400D01*
%TO.N,Net-(D10-A)*%
X136996000Y-91609000D02*
X153501000Y-91609000D01*
%TO.N,Net-(D7-A)*%
X149614840Y-141436000D02*
X158644571Y-141436000D01*
%TO.N,Net-(D5-A)*%
X129313000Y-94212000D02*
X130815000Y-92710000D01*
%TO.N,Net-(D8-A)*%
X130815000Y-100330000D02*
X137196000Y-93949000D01*
%TO.N,Net-(D9-A)*%
X170891200Y-69088000D02*
X172593000Y-69088000D01*
X157886400Y-77800200D02*
X162179000Y-77800200D01*
X172593000Y-69088000D02*
X175895000Y-72390000D01*
%TO.N,Net-(D10-A)*%
X153501000Y-91609000D02*
X163830000Y-81280000D01*
%TO.N,Net-(D6-A)*%
X161856000Y-125661000D02*
X172154000Y-125661000D01*
%TO.N,Net-(D7-A)*%
X136933000Y-114068000D02*
X136933000Y-128754160D01*
%TO.N,Net-(D8-A)*%
X183546000Y-93949000D02*
X192405000Y-85090000D01*
%TO.N,Net-(D6-A)*%
X138435000Y-107950000D02*
X144145000Y-107950000D01*
%TO.N,Net-(D10-A)*%
X130815000Y-97790000D02*
X136996000Y-91609000D01*
%TO.N,Net-(D7-A)*%
X130815000Y-107950000D02*
X136933000Y-114068000D01*
%TO.N,Net-(D5-A)*%
X129313000Y-119788000D02*
X129313000Y-94212000D01*
X133985000Y-124460000D02*
X129313000Y-119788000D01*
%TO.N,GND*%
X131271050Y-106849000D02*
X131916000Y-107493950D01*
X130358950Y-109051000D02*
X129714000Y-108406050D01*
X130358950Y-106849000D02*
X131271050Y-106849000D01*
X129714000Y-107493950D02*
X130358950Y-106849000D01*
X131877075Y-108444975D02*
X133631050Y-110198950D01*
X134794000Y-109036000D02*
X134794000Y-103971000D01*
X133063950Y-110766050D02*
X131309975Y-109012075D01*
X131916000Y-107493950D02*
X131916000Y-108406050D01*
X134794000Y-103971000D02*
X138435000Y-100330000D01*
X131271050Y-109051000D02*
X130358950Y-109051000D01*
X131190000Y-112640000D02*
X130815000Y-112265000D01*
X131916000Y-108406050D02*
X131877075Y-108444975D01*
X131190000Y-112640000D02*
X133063950Y-110766050D01*
X133631050Y-110198950D02*
X134794000Y-109036000D01*
X131309975Y-109012075D02*
X131271050Y-109051000D01*
X129714000Y-108406050D02*
X129714000Y-107493950D01*
X130815000Y-112265000D02*
X130815000Y-110490000D01*
%TD*%
%TA.AperFunction,Conductor*%
%TO.N,GND*%
G36*
X130416863Y-66986648D02*
G01*
X131143273Y-67004258D01*
X131147383Y-67004426D01*
X131872866Y-67046137D01*
X131876632Y-67046412D01*
X132643798Y-67114248D01*
X132647221Y-67114600D01*
X133412260Y-67204152D01*
X133415666Y-67204599D01*
X134177855Y-67315784D01*
X134181226Y-67316324D01*
X134939611Y-67448992D01*
X134943476Y-67449733D01*
X135660676Y-67599153D01*
X135664964Y-67600127D01*
X136375968Y-67775233D01*
X136380235Y-67776366D01*
X137084429Y-67976995D01*
X137088649Y-67978280D01*
X137785160Y-68204181D01*
X137789332Y-68205618D01*
X138477239Y-68456493D01*
X138481384Y-68458089D01*
X139159785Y-68733609D01*
X139163854Y-68735347D01*
X139831893Y-69035165D01*
X139835878Y-69037041D01*
X140492707Y-69360777D01*
X140496744Y-69362861D01*
X141255749Y-69772572D01*
X141259813Y-69774866D01*
X142002770Y-70213161D01*
X142006753Y-70215614D01*
X142490370Y-70526271D01*
X142732484Y-70681796D01*
X142736400Y-70684418D01*
X142745485Y-70690754D01*
X143443920Y-71177857D01*
X143447674Y-71180583D01*
X144135901Y-71700522D01*
X144139604Y-71703431D01*
X144807611Y-72249170D01*
X144811168Y-72252190D01*
X145458005Y-72822960D01*
X145461438Y-72826108D01*
X145911956Y-73255075D01*
X146061518Y-73397483D01*
X146089603Y-73424224D01*
X146092932Y-73427516D01*
X146698103Y-74048981D01*
X146701262Y-74052351D01*
X147001404Y-74384826D01*
X147282529Y-74696237D01*
X147285601Y-74699773D01*
X147842107Y-75365126D01*
X147845040Y-75368769D01*
X148360937Y-76035191D01*
X148376030Y-76054687D01*
X148378818Y-76058434D01*
X148747577Y-76573895D01*
X148883518Y-76763917D01*
X148886171Y-76767778D01*
X149358611Y-77483865D01*
X149360105Y-77486185D01*
X149371835Y-77504855D01*
X149371999Y-77505437D01*
X149372914Y-77506604D01*
X149773802Y-78168797D01*
X149806743Y-78223208D01*
X149809210Y-78227474D01*
X149949567Y-78481664D01*
X150220193Y-78971775D01*
X150222496Y-78976149D01*
X150603497Y-79736260D01*
X150605623Y-79740723D01*
X150956005Y-80515371D01*
X150957952Y-80519914D01*
X151277189Y-81307928D01*
X151278954Y-81312546D01*
X151566532Y-82112670D01*
X151568111Y-82117354D01*
X151804835Y-82868831D01*
X151804896Y-82869028D01*
X151807447Y-82877175D01*
X151807472Y-82877723D01*
X151825276Y-82934103D01*
X151825459Y-82934685D01*
X151825459Y-82934694D01*
X151826116Y-82936851D01*
X151842842Y-82993890D01*
X151844686Y-82998061D01*
X151849512Y-83010842D01*
X151954622Y-83343669D01*
X152080601Y-83742573D01*
X152080600Y-83742573D01*
X152084545Y-83755065D01*
X152085784Y-83768012D01*
X152104331Y-83817716D01*
X152105292Y-83820758D01*
X152120311Y-83868316D01*
X152120504Y-83868729D01*
X152131888Y-83891563D01*
X152368326Y-84525176D01*
X152370235Y-84538084D01*
X152391295Y-84586732D01*
X152392407Y-84589711D01*
X152392409Y-84589716D01*
X152409839Y-84636423D01*
X152409930Y-84636594D01*
X152422608Y-84659060D01*
X152485073Y-84803347D01*
X152629788Y-85137620D01*
X152630376Y-85141232D01*
X152655934Y-85198013D01*
X152680692Y-85255200D01*
X152680781Y-85255348D01*
X152686456Y-85263144D01*
X152751118Y-85360107D01*
X152751118Y-85360108D01*
X152834558Y-85449073D01*
X152866061Y-85511437D01*
X152858847Y-85580933D01*
X152815205Y-85635497D01*
X152748992Y-85657804D01*
X152744113Y-85657900D01*
X139893270Y-85657900D01*
X139893254Y-85657899D01*
X139885658Y-85657899D01*
X139727543Y-85657899D01*
X139651179Y-85678361D01*
X139574814Y-85698823D01*
X139574809Y-85698826D01*
X139437890Y-85777875D01*
X139437882Y-85777881D01*
X132327180Y-92888583D01*
X132265857Y-92922068D01*
X132196165Y-92917084D01*
X132140232Y-92875212D01*
X132115815Y-92809748D01*
X132115499Y-92800902D01*
X132115499Y-92109998D01*
X132115498Y-92109981D01*
X132104999Y-92007203D01*
X132104998Y-92007200D01*
X132091843Y-91967501D01*
X132049814Y-91840666D01*
X131957712Y-91691344D01*
X131833656Y-91567288D01*
X131684334Y-91475186D01*
X131517797Y-91420001D01*
X131517795Y-91420000D01*
X131415010Y-91409500D01*
X130214998Y-91409500D01*
X130214981Y-91409501D01*
X130112203Y-91420000D01*
X130112200Y-91420001D01*
X129945668Y-91475185D01*
X129945663Y-91475187D01*
X129796342Y-91567289D01*
X129672289Y-91691342D01*
X129580187Y-91840663D01*
X129580186Y-91840666D01*
X129525001Y-92007203D01*
X129525001Y-92007204D01*
X129525000Y-92007204D01*
X129514500Y-92109983D01*
X129514500Y-93109901D01*
X129494815Y-93176940D01*
X129478181Y-93197582D01*
X129207289Y-93468475D01*
X128944286Y-93731478D01*
X128944284Y-93731480D01*
X128889301Y-93786463D01*
X128832481Y-93843282D01*
X128832480Y-93843284D01*
X128817089Y-93869943D01*
X128753423Y-93980215D01*
X128712499Y-94132943D01*
X128712499Y-94132945D01*
X128712499Y-94301046D01*
X128712500Y-94301059D01*
X128712500Y-119701330D01*
X128712499Y-119701348D01*
X128712499Y-119867054D01*
X128712498Y-119867054D01*
X128753423Y-120019785D01*
X128782358Y-120069900D01*
X128782359Y-120069904D01*
X128782360Y-120069904D01*
X128832479Y-120156714D01*
X128832481Y-120156717D01*
X128951349Y-120275585D01*
X128951355Y-120275590D01*
X131523583Y-122847819D01*
X131557068Y-122909142D01*
X131552084Y-122978834D01*
X131510212Y-123034767D01*
X131444748Y-123059184D01*
X131435902Y-123059500D01*
X130497129Y-123059500D01*
X130497123Y-123059501D01*
X130437516Y-123065908D01*
X130302671Y-123116202D01*
X130302664Y-123116206D01*
X130187455Y-123202452D01*
X130187452Y-123202455D01*
X130101206Y-123317664D01*
X130101202Y-123317671D01*
X130050908Y-123452517D01*
X130044501Y-123512116D01*
X130044500Y-123512135D01*
X130044500Y-125407870D01*
X130044501Y-125407876D01*
X130050908Y-125467483D01*
X130101202Y-125602328D01*
X130101206Y-125602335D01*
X130187452Y-125717544D01*
X130187455Y-125717547D01*
X130302664Y-125803793D01*
X130302671Y-125803797D01*
X130437517Y-125854091D01*
X130437516Y-125854091D01*
X130444444Y-125854835D01*
X130497127Y-125860500D01*
X132392872Y-125860499D01*
X132452483Y-125854091D01*
X132587331Y-125803796D01*
X132702546Y-125717546D01*
X132788796Y-125602331D01*
X132816429Y-125528243D01*
X132818601Y-125522420D01*
X132860471Y-125466486D01*
X132925936Y-125442068D01*
X132994209Y-125456919D01*
X133022464Y-125478071D01*
X133072636Y-125528243D01*
X133072641Y-125528247D01*
X133174603Y-125602326D01*
X133250978Y-125657815D01*
X133379375Y-125723237D01*
X133447393Y-125757895D01*
X133447396Y-125757896D01*
X133514525Y-125779707D01*
X133657049Y-125826015D01*
X133874778Y-125860500D01*
X133874779Y-125860500D01*
X134095221Y-125860500D01*
X134095222Y-125860500D01*
X134312951Y-125826015D01*
X134522606Y-125757895D01*
X134719022Y-125657815D01*
X134897365Y-125528242D01*
X135053242Y-125372365D01*
X135182815Y-125194022D01*
X135282895Y-124997606D01*
X135351015Y-124787951D01*
X135385500Y-124570222D01*
X135385500Y-124349778D01*
X135351015Y-124132049D01*
X135282895Y-123922394D01*
X135282895Y-123922393D01*
X135248237Y-123854375D01*
X135182815Y-123725978D01*
X135124501Y-123645715D01*
X135053247Y-123547641D01*
X135053243Y-123547636D01*
X134897363Y-123391756D01*
X134897358Y-123391752D01*
X134719025Y-123262187D01*
X134719024Y-123262186D01*
X134719022Y-123262185D01*
X134601791Y-123202452D01*
X134522606Y-123162104D01*
X134522603Y-123162103D01*
X134312952Y-123093985D01*
X134204086Y-123076742D01*
X134095222Y-123059500D01*
X133874778Y-123059500D01*
X133834320Y-123065908D01*
X133657045Y-123093985D01*
X133586794Y-123116811D01*
X133516953Y-123118806D01*
X133460796Y-123086561D01*
X129949819Y-119575583D01*
X129916334Y-119514260D01*
X129913500Y-119487902D01*
X129913500Y-111685274D01*
X129933185Y-111618235D01*
X129985989Y-111572480D01*
X130055147Y-111562536D01*
X130110388Y-111584958D01*
X130133648Y-111601858D01*
X130315968Y-111694755D01*
X130510582Y-111757990D01*
X130712683Y-111790000D01*
X130917317Y-111790000D01*
X131119417Y-111757990D01*
X131314031Y-111694755D01*
X131496349Y-111601859D01*
X131540921Y-111569474D01*
X130861447Y-110890000D01*
X130867661Y-110890000D01*
X130969394Y-110862741D01*
X131060606Y-110810080D01*
X131135080Y-110735606D01*
X131187741Y-110644394D01*
X131215000Y-110542661D01*
X131215000Y-110536447D01*
X131894474Y-111215921D01*
X131926859Y-111171349D01*
X132019755Y-110989031D01*
X132082990Y-110794417D01*
X132115000Y-110592317D01*
X132115000Y-110398597D01*
X132134685Y-110331558D01*
X132187489Y-110285803D01*
X132256647Y-110275859D01*
X132320203Y-110304884D01*
X132326681Y-110310916D01*
X136296181Y-114280416D01*
X136329666Y-114341739D01*
X136332500Y-114368097D01*
X136332500Y-128667490D01*
X136332499Y-128667508D01*
X136332499Y-128833214D01*
X136332498Y-128833214D01*
X136373423Y-128985945D01*
X136402358Y-129036060D01*
X136402359Y-129036064D01*
X136402360Y-129036064D01*
X136452479Y-129122874D01*
X136452481Y-129122877D01*
X136571349Y-129241745D01*
X136571355Y-129241750D01*
X149129979Y-141800374D01*
X149129989Y-141800385D01*
X149134319Y-141804715D01*
X149134320Y-141804716D01*
X149246124Y-141916520D01*
X149332935Y-141966639D01*
X149332937Y-141966641D01*
X149370991Y-141988611D01*
X149383055Y-141995577D01*
X149535783Y-142036500D01*
X158557902Y-142036500D01*
X158557918Y-142036501D01*
X158565514Y-142036501D01*
X158723625Y-142036501D01*
X158723628Y-142036501D01*
X158876356Y-141995577D01*
X158926475Y-141966639D01*
X159013287Y-141916520D01*
X159125091Y-141804716D01*
X159125091Y-141804714D01*
X159135299Y-141794507D01*
X159135301Y-141794504D01*
X188963713Y-111966092D01*
X188963716Y-111966091D01*
X189075520Y-111854287D01*
X189125639Y-111767475D01*
X189154577Y-111717356D01*
X189195501Y-111564628D01*
X189195501Y-111406514D01*
X189195501Y-111398919D01*
X189195500Y-111398901D01*
X189195500Y-106751835D01*
X189215185Y-106684796D01*
X189263206Y-106641350D01*
X189263547Y-106641175D01*
X189329022Y-106607815D01*
X189507365Y-106478242D01*
X189663242Y-106322365D01*
X189792815Y-106144022D01*
X189892895Y-105947606D01*
X189961015Y-105737951D01*
X189995500Y-105520222D01*
X189995500Y-105299778D01*
X189961015Y-105082049D01*
X189892895Y-104872394D01*
X189892895Y-104872393D01*
X189854919Y-104797862D01*
X189792815Y-104675978D01*
X189766108Y-104639219D01*
X189663247Y-104497641D01*
X189663243Y-104497636D01*
X189507363Y-104341756D01*
X189507358Y-104341752D01*
X189329025Y-104212187D01*
X189329024Y-104212186D01*
X189329022Y-104212185D01*
X189261909Y-104177989D01*
X189132606Y-104112104D01*
X189132603Y-104112103D01*
X188922952Y-104043985D01*
X188814086Y-104026742D01*
X188705222Y-104009500D01*
X188484778Y-104009500D01*
X188412201Y-104020995D01*
X188267047Y-104043985D01*
X188057396Y-104112103D01*
X188057393Y-104112104D01*
X187860974Y-104212187D01*
X187682641Y-104341752D01*
X187682636Y-104341756D01*
X187632463Y-104391929D01*
X187571140Y-104425413D01*
X187501448Y-104420428D01*
X187445515Y-104378557D01*
X187428601Y-104347580D01*
X187398797Y-104267671D01*
X187398793Y-104267664D01*
X187312547Y-104152455D01*
X187312544Y-104152452D01*
X187197335Y-104066206D01*
X187197328Y-104066202D01*
X187062482Y-104015908D01*
X187062483Y-104015908D01*
X187002883Y-104009501D01*
X187002881Y-104009500D01*
X187002873Y-104009500D01*
X187002864Y-104009500D01*
X185107129Y-104009500D01*
X185107123Y-104009501D01*
X185047516Y-104015908D01*
X184912671Y-104066202D01*
X184912664Y-104066206D01*
X184797455Y-104152452D01*
X184797452Y-104152455D01*
X184711206Y-104267664D01*
X184711202Y-104267671D01*
X184660908Y-104402517D01*
X184654501Y-104462116D01*
X184654500Y-104462135D01*
X184654500Y-106357870D01*
X184654501Y-106357876D01*
X184660908Y-106417483D01*
X184711202Y-106552328D01*
X184711206Y-106552335D01*
X184797452Y-106667544D01*
X184797455Y-106667547D01*
X184912664Y-106753793D01*
X184912671Y-106753797D01*
X185047517Y-106804091D01*
X185047516Y-106804091D01*
X185054444Y-106804835D01*
X185107127Y-106810500D01*
X187002872Y-106810499D01*
X187062483Y-106804091D01*
X187197331Y-106753796D01*
X187312546Y-106667546D01*
X187398796Y-106552331D01*
X187426429Y-106478243D01*
X187428601Y-106472420D01*
X187470471Y-106416486D01*
X187535936Y-106392068D01*
X187604209Y-106406919D01*
X187632464Y-106428071D01*
X187682636Y-106478243D01*
X187682641Y-106478247D01*
X187860976Y-106607814D01*
X187926794Y-106641350D01*
X187977591Y-106689324D01*
X187994500Y-106751835D01*
X187994500Y-111185474D01*
X187974815Y-111252513D01*
X187958181Y-111273155D01*
X174944819Y-124286516D01*
X174883496Y-124320001D01*
X174813804Y-124315017D01*
X174757871Y-124273145D01*
X174734665Y-124218232D01*
X174721015Y-124132048D01*
X174652896Y-123922396D01*
X174652895Y-123922393D01*
X174618237Y-123854375D01*
X174552815Y-123725978D01*
X174494501Y-123645715D01*
X174423247Y-123547641D01*
X174423243Y-123547636D01*
X174267363Y-123391756D01*
X174267358Y-123391752D01*
X174089025Y-123262187D01*
X174089024Y-123262186D01*
X174089022Y-123262185D01*
X173971791Y-123202452D01*
X173892606Y-123162104D01*
X173892603Y-123162103D01*
X173682952Y-123093985D01*
X173574086Y-123076742D01*
X173465222Y-123059500D01*
X173244778Y-123059500D01*
X173172201Y-123070995D01*
X173027047Y-123093985D01*
X172817396Y-123162103D01*
X172817393Y-123162104D01*
X172620974Y-123262187D01*
X172442641Y-123391752D01*
X172442636Y-123391756D01*
X172392463Y-123441929D01*
X172331140Y-123475413D01*
X172261448Y-123470428D01*
X172205515Y-123428557D01*
X172188601Y-123397580D01*
X172158797Y-123317671D01*
X172158793Y-123317664D01*
X172072547Y-123202455D01*
X172072544Y-123202452D01*
X171957335Y-123116206D01*
X171957328Y-123116202D01*
X171822482Y-123065908D01*
X171822483Y-123065908D01*
X171762883Y-123059501D01*
X171762881Y-123059500D01*
X171762873Y-123059500D01*
X171762864Y-123059500D01*
X169867129Y-123059500D01*
X169867123Y-123059501D01*
X169807516Y-123065908D01*
X169672671Y-123116202D01*
X169672664Y-123116206D01*
X169557455Y-123202452D01*
X169557452Y-123202455D01*
X169471206Y-123317664D01*
X169471202Y-123317671D01*
X169420908Y-123452517D01*
X169418983Y-123470428D01*
X169414500Y-123512127D01*
X169414500Y-124273145D01*
X169414501Y-124936500D01*
X169394816Y-125003539D01*
X169342013Y-125049294D01*
X169290501Y-125060500D01*
X162156097Y-125060500D01*
X162089058Y-125040815D01*
X162068416Y-125024181D01*
X152778312Y-115734077D01*
X152744827Y-115672754D01*
X152749811Y-115603062D01*
X152791683Y-115547129D01*
X152827672Y-115528466D01*
X152899219Y-115505220D01*
X153081610Y-115412287D01*
X153174590Y-115344732D01*
X153247213Y-115291971D01*
X153247215Y-115291968D01*
X153247219Y-115291966D01*
X153391966Y-115147219D01*
X153391968Y-115147215D01*
X153391971Y-115147213D01*
X153445883Y-115073008D01*
X153512287Y-114981610D01*
X153605220Y-114799219D01*
X153668477Y-114604534D01*
X153700500Y-114402352D01*
X153700500Y-114197648D01*
X154909500Y-114197648D01*
X154909500Y-114402351D01*
X154941522Y-114604534D01*
X155004781Y-114799223D01*
X155068691Y-114924653D01*
X155097585Y-114981359D01*
X155097715Y-114981613D01*
X155218028Y-115147213D01*
X155362786Y-115291971D01*
X155483226Y-115379474D01*
X155528390Y-115412287D01*
X155644607Y-115471503D01*
X155710776Y-115505218D01*
X155710778Y-115505218D01*
X155710781Y-115505220D01*
X155782322Y-115528465D01*
X155905465Y-115568477D01*
X156006557Y-115584488D01*
X156107648Y-115600500D01*
X156107649Y-115600500D01*
X156312351Y-115600500D01*
X156312352Y-115600500D01*
X156514534Y-115568477D01*
X156709219Y-115505220D01*
X156891610Y-115412287D01*
X156984590Y-115344732D01*
X157057213Y-115291971D01*
X157057215Y-115291968D01*
X157057219Y-115291966D01*
X157201966Y-115147219D01*
X157201968Y-115147215D01*
X157201971Y-115147213D01*
X157255883Y-115073008D01*
X157322287Y-114981610D01*
X157415220Y-114799219D01*
X157478477Y-114604534D01*
X157510500Y-114402352D01*
X157510500Y-114197682D01*
X162530000Y-114197682D01*
X162530000Y-114402317D01*
X162562009Y-114604417D01*
X162625244Y-114799031D01*
X162718141Y-114981350D01*
X162718147Y-114981359D01*
X162750523Y-115025921D01*
X162750524Y-115025922D01*
X163430000Y-114346446D01*
X163430000Y-114352661D01*
X163457259Y-114454394D01*
X163509920Y-114545606D01*
X163584394Y-114620080D01*
X163675606Y-114672741D01*
X163777339Y-114700000D01*
X163783553Y-114700000D01*
X163104076Y-115379474D01*
X163148650Y-115411859D01*
X163330968Y-115504755D01*
X163525582Y-115567990D01*
X163727683Y-115600000D01*
X163932317Y-115600000D01*
X164134417Y-115567990D01*
X164329031Y-115504755D01*
X164511349Y-115411859D01*
X164555921Y-115379474D01*
X163876447Y-114700000D01*
X163882661Y-114700000D01*
X163984394Y-114672741D01*
X164075606Y-114620080D01*
X164150080Y-114545606D01*
X164202741Y-114454394D01*
X164230000Y-114352661D01*
X164230000Y-114346447D01*
X164909474Y-115025921D01*
X164941859Y-114981349D01*
X165034755Y-114799031D01*
X165097990Y-114604417D01*
X165130000Y-114402317D01*
X165130000Y-114197682D01*
X165097990Y-113995582D01*
X165034755Y-113800968D01*
X164941859Y-113618650D01*
X164909474Y-113574077D01*
X164909474Y-113574076D01*
X164230000Y-114253551D01*
X164230000Y-114247339D01*
X164202741Y-114145606D01*
X164150080Y-114054394D01*
X164075606Y-113979920D01*
X163984394Y-113927259D01*
X163882661Y-113900000D01*
X163876446Y-113900000D01*
X164555922Y-113220524D01*
X164555921Y-113220523D01*
X164511359Y-113188147D01*
X164511350Y-113188141D01*
X164329031Y-113095244D01*
X164134417Y-113032009D01*
X163932317Y-113000000D01*
X163727683Y-113000000D01*
X163525582Y-113032009D01*
X163330968Y-113095244D01*
X163148644Y-113188143D01*
X163104077Y-113220523D01*
X163104077Y-113220524D01*
X163783554Y-113900000D01*
X163777339Y-113900000D01*
X163675606Y-113927259D01*
X163584394Y-113979920D01*
X163509920Y-114054394D01*
X163457259Y-114145606D01*
X163430000Y-114247339D01*
X163430000Y-114253553D01*
X162750524Y-113574077D01*
X162750523Y-113574077D01*
X162718143Y-113618644D01*
X162625244Y-113800968D01*
X162562009Y-113995582D01*
X162530000Y-114197682D01*
X157510500Y-114197682D01*
X157510500Y-114197648D01*
X157490053Y-114068554D01*
X157478477Y-113995465D01*
X157438466Y-113872325D01*
X157415220Y-113800781D01*
X157415218Y-113800778D01*
X157415218Y-113800776D01*
X157322419Y-113618650D01*
X157322287Y-113618390D01*
X157290092Y-113574077D01*
X157201971Y-113452786D01*
X157057213Y-113308028D01*
X156891613Y-113187715D01*
X156891612Y-113187714D01*
X156891610Y-113187713D01*
X156834653Y-113158691D01*
X156709223Y-113094781D01*
X156514534Y-113031522D01*
X156339995Y-113003878D01*
X156312352Y-112999500D01*
X156107648Y-112999500D01*
X156083329Y-113003351D01*
X155905465Y-113031522D01*
X155710776Y-113094781D01*
X155528386Y-113187715D01*
X155362786Y-113308028D01*
X155218028Y-113452786D01*
X155097715Y-113618386D01*
X155004781Y-113800776D01*
X154941522Y-113995465D01*
X154909500Y-114197648D01*
X153700500Y-114197648D01*
X153672801Y-114022764D01*
X153668478Y-113995472D01*
X153668477Y-113995471D01*
X153668477Y-113995466D01*
X153663825Y-113981151D01*
X153661832Y-113911312D01*
X153694075Y-113855158D01*
X154673713Y-112875521D01*
X154673716Y-112875520D01*
X154785520Y-112763716D01*
X154835639Y-112676904D01*
X154864577Y-112626785D01*
X154905501Y-112474057D01*
X154905501Y-112315943D01*
X154905501Y-112308348D01*
X154905500Y-112308330D01*
X154905500Y-104229500D01*
X154925185Y-104162461D01*
X154977989Y-104116706D01*
X155029500Y-104105500D01*
X156712518Y-104105500D01*
X156779557Y-104125185D01*
X156825312Y-104177989D01*
X156832293Y-104197405D01*
X156845446Y-104246492D01*
X156932576Y-104417494D01*
X156954473Y-104444535D01*
X157053354Y-104566645D01*
X157120250Y-104620815D01*
X157202506Y-104687424D01*
X157373508Y-104774554D01*
X157558889Y-104824227D01*
X157638598Y-104830500D01*
X157638606Y-104830500D01*
X158591394Y-104830500D01*
X158591402Y-104830500D01*
X158671111Y-104824227D01*
X158856492Y-104774554D01*
X159027494Y-104687424D01*
X159176645Y-104566645D01*
X159297424Y-104417494D01*
X159363080Y-104288636D01*
X159411054Y-104237840D01*
X159478875Y-104221045D01*
X159545010Y-104243582D01*
X159573879Y-104272041D01*
X159643965Y-104368505D01*
X159791495Y-104516035D01*
X159960286Y-104638670D01*
X160033500Y-104675974D01*
X160146179Y-104733387D01*
X160146181Y-104733387D01*
X160146184Y-104733389D01*
X160252545Y-104767948D01*
X160344610Y-104797862D01*
X160550676Y-104830500D01*
X160550681Y-104830500D01*
X160759324Y-104830500D01*
X160965389Y-104797862D01*
X161037123Y-104774554D01*
X161163816Y-104733389D01*
X161349714Y-104638670D01*
X161518505Y-104516035D01*
X161666035Y-104368505D01*
X161788670Y-104199714D01*
X161807651Y-104162461D01*
X161814515Y-104148990D01*
X161862489Y-104098194D01*
X161930310Y-104081398D01*
X161996445Y-104103935D01*
X162035485Y-104148990D01*
X162061328Y-104199712D01*
X162143086Y-104312241D01*
X162183965Y-104368505D01*
X162331495Y-104516035D01*
X162500286Y-104638670D01*
X162573500Y-104675974D01*
X162686179Y-104733387D01*
X162686181Y-104733387D01*
X162686184Y-104733389D01*
X162792545Y-104767948D01*
X162884610Y-104797862D01*
X163090676Y-104830500D01*
X163090681Y-104830500D01*
X163299324Y-104830500D01*
X163505389Y-104797862D01*
X163577123Y-104774554D01*
X163703816Y-104733389D01*
X163889714Y-104638670D01*
X164058505Y-104516035D01*
X164206035Y-104368505D01*
X164328670Y-104199714D01*
X164423389Y-104013816D01*
X164487862Y-103815389D01*
X164498395Y-103748888D01*
X164520500Y-103609324D01*
X164520500Y-103400675D01*
X164487862Y-103194610D01*
X164423387Y-102996179D01*
X164366644Y-102884815D01*
X164328670Y-102810286D01*
X164206035Y-102641495D01*
X164058505Y-102493965D01*
X163889714Y-102371330D01*
X163888627Y-102370776D01*
X163703820Y-102276612D01*
X163505389Y-102212137D01*
X163299324Y-102179500D01*
X163299319Y-102179500D01*
X163090681Y-102179500D01*
X163090676Y-102179500D01*
X162884610Y-102212137D01*
X162686179Y-102276612D01*
X162500285Y-102371330D01*
X162331493Y-102493966D01*
X162183966Y-102641493D01*
X162061330Y-102810285D01*
X162035485Y-102861010D01*
X161987510Y-102911806D01*
X161919690Y-102928601D01*
X161853555Y-102906064D01*
X161814515Y-102861010D01*
X161788669Y-102810285D01*
X161754683Y-102763508D01*
X161666035Y-102641495D01*
X161518505Y-102493965D01*
X161349714Y-102371330D01*
X161348627Y-102370776D01*
X161163820Y-102276612D01*
X160965389Y-102212137D01*
X160759324Y-102179500D01*
X160759319Y-102179500D01*
X160550681Y-102179500D01*
X160550676Y-102179500D01*
X160344610Y-102212137D01*
X160146179Y-102276612D01*
X159960285Y-102371330D01*
X159791493Y-102493966D01*
X159643966Y-102641493D01*
X159573883Y-102737954D01*
X159518552Y-102780619D01*
X159448939Y-102786598D01*
X159387144Y-102753992D01*
X159363080Y-102721363D01*
X159297425Y-102592507D01*
X159176645Y-102443354D01*
X159084549Y-102368778D01*
X159027494Y-102322576D01*
X158856492Y-102235446D01*
X158856491Y-102235445D01*
X158856490Y-102235445D01*
X158671109Y-102185772D01*
X158591409Y-102179500D01*
X158591402Y-102179500D01*
X157638598Y-102179500D01*
X157638590Y-102179500D01*
X157558890Y-102185772D01*
X157373509Y-102235445D01*
X157202507Y-102322575D01*
X157053354Y-102443354D01*
X156932575Y-102592507D01*
X156845446Y-102763507D01*
X156832293Y-102812595D01*
X156795927Y-102872255D01*
X156733080Y-102902783D01*
X156712518Y-102904500D01*
X154605097Y-102904500D01*
X154538058Y-102884815D01*
X154517416Y-102868181D01*
X153694077Y-102044842D01*
X153660592Y-101983519D01*
X153663828Y-101918841D01*
X153668477Y-101904534D01*
X153700500Y-101702352D01*
X153700500Y-101497648D01*
X153668477Y-101295466D01*
X153668476Y-101295464D01*
X153605218Y-101100776D01*
X153571503Y-101034607D01*
X153512287Y-100918390D01*
X153504556Y-100907749D01*
X153391971Y-100752786D01*
X153247213Y-100608028D01*
X153081614Y-100487715D01*
X153075006Y-100484348D01*
X152988917Y-100440483D01*
X152938123Y-100392511D01*
X152921328Y-100324690D01*
X152943865Y-100258555D01*
X152988917Y-100219516D01*
X153081610Y-100172287D01*
X153139423Y-100130284D01*
X153247213Y-100051971D01*
X153247215Y-100051968D01*
X153247219Y-100051966D01*
X153391966Y-99907219D01*
X153391968Y-99907215D01*
X153391971Y-99907213D01*
X153497546Y-99761899D01*
X153512287Y-99741610D01*
X153605220Y-99559219D01*
X153668477Y-99364534D01*
X153700500Y-99162352D01*
X153700500Y-98957648D01*
X153695742Y-98927609D01*
X153668477Y-98755465D01*
X153605218Y-98560776D01*
X153571503Y-98494607D01*
X153512287Y-98378390D01*
X153496966Y-98357302D01*
X153391971Y-98212786D01*
X153247213Y-98068028D01*
X153081613Y-97947715D01*
X153081612Y-97947714D01*
X153081610Y-97947713D01*
X153022675Y-97917684D01*
X152899223Y-97854781D01*
X152704534Y-97791522D01*
X152529995Y-97763878D01*
X152502352Y-97759500D01*
X152297648Y-97759500D01*
X152273329Y-97763351D01*
X152095465Y-97791522D01*
X151900776Y-97854781D01*
X151718386Y-97947715D01*
X151552786Y-98068028D01*
X151408028Y-98212786D01*
X151287715Y-98378386D01*
X151194781Y-98560776D01*
X151131522Y-98755465D01*
X151099500Y-98957648D01*
X151099500Y-99162351D01*
X151131522Y-99364534D01*
X151194781Y-99559223D01*
X151287715Y-99741613D01*
X151408028Y-99907213D01*
X151552786Y-100051971D01*
X151688975Y-100150916D01*
X151718390Y-100172287D01*
X151809840Y-100218883D01*
X151811080Y-100219515D01*
X151861876Y-100267490D01*
X151878671Y-100335311D01*
X151856134Y-100401446D01*
X151811080Y-100440485D01*
X151718386Y-100487715D01*
X151552786Y-100608028D01*
X151408028Y-100752786D01*
X151287715Y-100918386D01*
X151194781Y-101100777D01*
X151173974Y-101164815D01*
X151134536Y-101222490D01*
X151070177Y-101249688D01*
X151001330Y-101237773D01*
X150968362Y-101214177D01*
X149891540Y-100137355D01*
X149891538Y-100137352D01*
X149772667Y-100018481D01*
X149772659Y-100018475D01*
X149672242Y-99960500D01*
X149672241Y-99960499D01*
X149672241Y-99960500D01*
X149635735Y-99939423D01*
X149600568Y-99930000D01*
X149483007Y-99898499D01*
X149324893Y-99898499D01*
X149317297Y-99898499D01*
X149317281Y-99898500D01*
X146192946Y-99898500D01*
X146125907Y-99878815D01*
X146080152Y-99826011D01*
X146069588Y-99761898D01*
X146079999Y-99659988D01*
X146080000Y-99659973D01*
X146080000Y-99310000D01*
X145095686Y-99310000D01*
X145100080Y-99305606D01*
X145152741Y-99214394D01*
X145180000Y-99112661D01*
X145180000Y-99007339D01*
X145152741Y-98905606D01*
X145100080Y-98814394D01*
X145095686Y-98810000D01*
X146079999Y-98810000D01*
X146079999Y-98460028D01*
X146079998Y-98460013D01*
X146069505Y-98357302D01*
X146014358Y-98190880D01*
X146014356Y-98190875D01*
X145922315Y-98041654D01*
X145798345Y-97917684D01*
X145649124Y-97825643D01*
X145649119Y-97825641D01*
X145482697Y-97770494D01*
X145482690Y-97770493D01*
X145379986Y-97760000D01*
X145030000Y-97760000D01*
X145030000Y-98744314D01*
X145025606Y-98739920D01*
X144934394Y-98687259D01*
X144832661Y-98660000D01*
X144727339Y-98660000D01*
X144625606Y-98687259D01*
X144534394Y-98739920D01*
X144530000Y-98744314D01*
X144530000Y-97760000D01*
X144180028Y-97760000D01*
X144180012Y-97760001D01*
X144077302Y-97770494D01*
X143910880Y-97825641D01*
X143910875Y-97825643D01*
X143761654Y-97917684D01*
X143637684Y-98041654D01*
X143545643Y-98190875D01*
X143545641Y-98190880D01*
X143490494Y-98357302D01*
X143490493Y-98357309D01*
X143480000Y-98460013D01*
X143480000Y-98810000D01*
X144464314Y-98810000D01*
X144459920Y-98814394D01*
X144407259Y-98905606D01*
X144380000Y-99007339D01*
X144380000Y-99112661D01*
X144407259Y-99214394D01*
X144459920Y-99305606D01*
X144464314Y-99310000D01*
X143480001Y-99310000D01*
X143480001Y-99659989D01*
X143490412Y-99761899D01*
X143477642Y-99830592D01*
X143429761Y-99881476D01*
X143367054Y-99898500D01*
X141444098Y-99898500D01*
X141377059Y-99878815D01*
X141356417Y-99862181D01*
X140708630Y-99214394D01*
X139729076Y-98234841D01*
X139695592Y-98173519D01*
X139698828Y-98108841D01*
X139703477Y-98094534D01*
X139735500Y-97892352D01*
X139735500Y-97687648D01*
X139703477Y-97485466D01*
X139640220Y-97290781D01*
X139640218Y-97290778D01*
X139640218Y-97290776D01*
X139606503Y-97224607D01*
X139547287Y-97108390D01*
X139539556Y-97097749D01*
X139426971Y-96942786D01*
X139282213Y-96798028D01*
X139116611Y-96677713D01*
X139023369Y-96630203D01*
X139016959Y-96624149D01*
X139008604Y-96621337D01*
X138991951Y-96600530D01*
X138972574Y-96582229D01*
X138970454Y-96573671D01*
X138964945Y-96566787D01*
X138962184Y-96540275D01*
X138955779Y-96514407D01*
X138958622Y-96506061D01*
X138957710Y-96497293D01*
X138969719Y-96473499D01*
X138978317Y-96448273D01*
X138986048Y-96441149D01*
X138989194Y-96434919D01*
X139008832Y-96420160D01*
X139016750Y-96412866D01*
X139159980Y-96328532D01*
X138481447Y-95650000D01*
X138487661Y-95650000D01*
X138589394Y-95622741D01*
X138680606Y-95570080D01*
X138755080Y-95495606D01*
X138807741Y-95404394D01*
X138835000Y-95302661D01*
X138835000Y-95296447D01*
X139514474Y-95975921D01*
X139546859Y-95931349D01*
X139639755Y-95749031D01*
X139702990Y-95554417D01*
X139735000Y-95352317D01*
X139735000Y-95147682D01*
X139702990Y-94945582D01*
X139639754Y-94750966D01*
X139628967Y-94729796D01*
X139616070Y-94661127D01*
X139642345Y-94596386D01*
X139699451Y-94556129D01*
X139739451Y-94549500D01*
X156634742Y-94549500D01*
X156701781Y-94569185D01*
X156747536Y-94621989D01*
X156757480Y-94691147D01*
X156752673Y-94711818D01*
X156691934Y-94898751D01*
X156655000Y-95131947D01*
X156655000Y-95368052D01*
X156691934Y-95601247D01*
X156764897Y-95825802D01*
X156872087Y-96036174D01*
X156932338Y-96119104D01*
X156932340Y-96119105D01*
X157672037Y-95379408D01*
X157689075Y-95442993D01*
X157754901Y-95557007D01*
X157847993Y-95650099D01*
X157962007Y-95715925D01*
X158025590Y-95732962D01*
X157285893Y-96472658D01*
X157368828Y-96532914D01*
X157579197Y-96640102D01*
X157803752Y-96713065D01*
X157803751Y-96713065D01*
X158036948Y-96750000D01*
X158273052Y-96750000D01*
X158506247Y-96713065D01*
X158730802Y-96640102D01*
X158941163Y-96532918D01*
X158941169Y-96532914D01*
X159024104Y-96472658D01*
X159024105Y-96472658D01*
X158284408Y-95732962D01*
X158347993Y-95715925D01*
X158462007Y-95650099D01*
X158555099Y-95557007D01*
X158620925Y-95442993D01*
X158637962Y-95379409D01*
X159377658Y-96119105D01*
X159377658Y-96119104D01*
X159437914Y-96036169D01*
X159437918Y-96036163D01*
X159545102Y-95825802D01*
X159618065Y-95601247D01*
X159655000Y-95368052D01*
X159655000Y-95131947D01*
X159618065Y-94898751D01*
X159557327Y-94711818D01*
X159555332Y-94641977D01*
X159591412Y-94582144D01*
X159654113Y-94551316D01*
X159675258Y-94549500D01*
X161634216Y-94549500D01*
X161701255Y-94569185D01*
X161747010Y-94621989D01*
X161756954Y-94691147D01*
X161752148Y-94711812D01*
X161739741Y-94750000D01*
X161691446Y-94898631D01*
X161654500Y-95131902D01*
X161654500Y-95368097D01*
X161691446Y-95601368D01*
X161764433Y-95825996D01*
X161840825Y-95975922D01*
X161871657Y-96036433D01*
X162010483Y-96227510D01*
X162177490Y-96394517D01*
X162368567Y-96533343D01*
X162434205Y-96566787D01*
X162579003Y-96640566D01*
X162579005Y-96640566D01*
X162579008Y-96640568D01*
X162693328Y-96677713D01*
X162803631Y-96713553D01*
X163036903Y-96750500D01*
X163036908Y-96750500D01*
X163273097Y-96750500D01*
X163506368Y-96713553D01*
X163507870Y-96713065D01*
X163730992Y-96640568D01*
X163941433Y-96533343D01*
X164132510Y-96394517D01*
X164299517Y-96227510D01*
X164438343Y-96036433D01*
X164545568Y-95825992D01*
X164618553Y-95601368D01*
X164618572Y-95601247D01*
X164655500Y-95368097D01*
X164655500Y-95131902D01*
X164618553Y-94898631D01*
X164570259Y-94750000D01*
X164557852Y-94711817D01*
X164555858Y-94641978D01*
X164591938Y-94582145D01*
X164654639Y-94551316D01*
X164675784Y-94549500D01*
X183459331Y-94549500D01*
X183459347Y-94549501D01*
X183466943Y-94549501D01*
X183625054Y-94549501D01*
X183625057Y-94549501D01*
X183777785Y-94508577D01*
X183855744Y-94463567D01*
X183914716Y-94429520D01*
X184026520Y-94317716D01*
X184026520Y-94317714D01*
X184036724Y-94307511D01*
X184036728Y-94307506D01*
X191880797Y-86463436D01*
X191942118Y-86429953D01*
X192006794Y-86433188D01*
X192026051Y-86439444D01*
X192077049Y-86456015D01*
X192294778Y-86490500D01*
X192294779Y-86490500D01*
X192515221Y-86490500D01*
X192515222Y-86490500D01*
X192732951Y-86456015D01*
X192942606Y-86387895D01*
X193139022Y-86287815D01*
X193317365Y-86158242D01*
X193473242Y-86002365D01*
X193602815Y-85824022D01*
X193702895Y-85627606D01*
X193771015Y-85417951D01*
X193805500Y-85200222D01*
X193805500Y-84979778D01*
X193771015Y-84762049D01*
X193736955Y-84657221D01*
X193702896Y-84552396D01*
X193702895Y-84552393D01*
X193668237Y-84484375D01*
X193602815Y-84355978D01*
X193498882Y-84212925D01*
X193473247Y-84177641D01*
X193473243Y-84177636D01*
X193317363Y-84021756D01*
X193317358Y-84021752D01*
X193139025Y-83892187D01*
X193139024Y-83892186D01*
X193139022Y-83892185D01*
X193039823Y-83841640D01*
X192942606Y-83792104D01*
X192942603Y-83792103D01*
X192732952Y-83723985D01*
X192624086Y-83706742D01*
X192515222Y-83689500D01*
X192294778Y-83689500D01*
X192222201Y-83700995D01*
X192077047Y-83723985D01*
X191867396Y-83792103D01*
X191867393Y-83792104D01*
X191670974Y-83892187D01*
X191492641Y-84021752D01*
X191492636Y-84021756D01*
X191442463Y-84071929D01*
X191381140Y-84105413D01*
X191311448Y-84100428D01*
X191255515Y-84058557D01*
X191238601Y-84027580D01*
X191208797Y-83947671D01*
X191208793Y-83947664D01*
X191122547Y-83832455D01*
X191122544Y-83832452D01*
X191007335Y-83746206D01*
X191007328Y-83746202D01*
X190872482Y-83695908D01*
X190872483Y-83695908D01*
X190812883Y-83689501D01*
X190812881Y-83689500D01*
X190812873Y-83689500D01*
X190812864Y-83689500D01*
X188917129Y-83689500D01*
X188917123Y-83689501D01*
X188857516Y-83695908D01*
X188722671Y-83746202D01*
X188722664Y-83746206D01*
X188607455Y-83832452D01*
X188607452Y-83832455D01*
X188521206Y-83947664D01*
X188521202Y-83947671D01*
X188470908Y-84082517D01*
X188464501Y-84142116D01*
X188464500Y-84142135D01*
X188464500Y-86037870D01*
X188464501Y-86037876D01*
X188470908Y-86097483D01*
X188521202Y-86232328D01*
X188521206Y-86232335D01*
X188607452Y-86347544D01*
X188607455Y-86347547D01*
X188722664Y-86433793D01*
X188722671Y-86433797D01*
X188857517Y-86484091D01*
X188857516Y-86484091D01*
X188864444Y-86484835D01*
X188917127Y-86490500D01*
X189855902Y-86490499D01*
X189922941Y-86510183D01*
X189968696Y-86562987D01*
X189978640Y-86632146D01*
X189949615Y-86695702D01*
X189943583Y-86702180D01*
X183333584Y-93312181D01*
X183272261Y-93345666D01*
X183245903Y-93348500D01*
X139765636Y-93348500D01*
X139698597Y-93328815D01*
X139652842Y-93276011D01*
X139642898Y-93206853D01*
X139647703Y-93186186D01*
X139703477Y-93014534D01*
X139735500Y-92812352D01*
X139735500Y-92607648D01*
X139703477Y-92405466D01*
X139703475Y-92405462D01*
X139703475Y-92405457D01*
X139692545Y-92371817D01*
X139690550Y-92301976D01*
X139726631Y-92242144D01*
X139789332Y-92211316D01*
X139810476Y-92209500D01*
X153414331Y-92209500D01*
X153414347Y-92209501D01*
X153421943Y-92209501D01*
X153580054Y-92209501D01*
X153580057Y-92209501D01*
X153732785Y-92168577D01*
X153789270Y-92135965D01*
X153869716Y-92089520D01*
X153981520Y-91977716D01*
X153981520Y-91977714D01*
X153991724Y-91967511D01*
X153991728Y-91967506D01*
X163305797Y-82653436D01*
X163367118Y-82619953D01*
X163431794Y-82623188D01*
X163451051Y-82629444D01*
X163502049Y-82646015D01*
X163719778Y-82680500D01*
X163719779Y-82680500D01*
X163940221Y-82680500D01*
X163940222Y-82680500D01*
X164157951Y-82646015D01*
X164367606Y-82577895D01*
X164564022Y-82477815D01*
X164742365Y-82348242D01*
X164898242Y-82192365D01*
X165027815Y-82014022D01*
X165127895Y-81817606D01*
X165196015Y-81607951D01*
X165230500Y-81390222D01*
X165230500Y-81169778D01*
X165196015Y-80952049D01*
X165145035Y-80795147D01*
X165127896Y-80742396D01*
X165127895Y-80742393D01*
X165093237Y-80674375D01*
X165027815Y-80545978D01*
X164969501Y-80465715D01*
X164898247Y-80367641D01*
X164898243Y-80367636D01*
X164742363Y-80211756D01*
X164742358Y-80211752D01*
X164564025Y-80082187D01*
X164564024Y-80082186D01*
X164564022Y-80082185D01*
X164446791Y-80022452D01*
X164367606Y-79982104D01*
X164367603Y-79982103D01*
X164157952Y-79913985D01*
X164049086Y-79896742D01*
X163940222Y-79879500D01*
X163719778Y-79879500D01*
X163647201Y-79890995D01*
X163502047Y-79913985D01*
X163292396Y-79982103D01*
X163292393Y-79982104D01*
X163095974Y-80082187D01*
X162917641Y-80211752D01*
X162917636Y-80211756D01*
X162867463Y-80261929D01*
X162806140Y-80295413D01*
X162736448Y-80290428D01*
X162680515Y-80248557D01*
X162663601Y-80217580D01*
X162633797Y-80137671D01*
X162633793Y-80137664D01*
X162547547Y-80022455D01*
X162547544Y-80022452D01*
X162432335Y-79936206D01*
X162432328Y-79936202D01*
X162297482Y-79885908D01*
X162297483Y-79885908D01*
X162237883Y-79879501D01*
X162237881Y-79879500D01*
X162237873Y-79879500D01*
X162237864Y-79879500D01*
X160342129Y-79879500D01*
X160342123Y-79879501D01*
X160282516Y-79885908D01*
X160147671Y-79936202D01*
X160147664Y-79936206D01*
X160032455Y-80022452D01*
X160032452Y-80022455D01*
X159946206Y-80137664D01*
X159946202Y-80137671D01*
X159895908Y-80272517D01*
X159889501Y-80332116D01*
X159889500Y-80332135D01*
X159889500Y-82227870D01*
X159889501Y-82227876D01*
X159895908Y-82287483D01*
X159946202Y-82422328D01*
X159946206Y-82422335D01*
X160032452Y-82537544D01*
X160032455Y-82537547D01*
X160147664Y-82623793D01*
X160147671Y-82623797D01*
X160282517Y-82674091D01*
X160282516Y-82674091D01*
X160289444Y-82674835D01*
X160342127Y-82680500D01*
X161280902Y-82680499D01*
X161347941Y-82700183D01*
X161393696Y-82752987D01*
X161403640Y-82822146D01*
X161374615Y-82885702D01*
X161368583Y-82892180D01*
X153288584Y-90972181D01*
X153227261Y-91005666D01*
X153200903Y-91008500D01*
X137082669Y-91008500D01*
X137082653Y-91008499D01*
X137075057Y-91008499D01*
X136916943Y-91008499D01*
X136809587Y-91037265D01*
X136764210Y-91049424D01*
X136764209Y-91049425D01*
X136714096Y-91078359D01*
X136714095Y-91078360D01*
X136670689Y-91103420D01*
X136627285Y-91128479D01*
X136627282Y-91128481D01*
X132327181Y-95428583D01*
X132265858Y-95462068D01*
X132196166Y-95457084D01*
X132140233Y-95415212D01*
X132115816Y-95349748D01*
X132115500Y-95340902D01*
X132115500Y-95147648D01*
X132083478Y-94945472D01*
X132083477Y-94945471D01*
X132083477Y-94945466D01*
X132078825Y-94931151D01*
X132076832Y-94861312D01*
X132109075Y-94805158D01*
X140019017Y-86895219D01*
X140080340Y-86861734D01*
X140106698Y-86858900D01*
X153020002Y-86858900D01*
X153020018Y-86858901D01*
X153027614Y-86858901D01*
X153185725Y-86858901D01*
X153185728Y-86858901D01*
X153338456Y-86817977D01*
X153419465Y-86771206D01*
X153475387Y-86738920D01*
X153587191Y-86627116D01*
X153587191Y-86627114D01*
X153597395Y-86616911D01*
X153597398Y-86616906D01*
X158366920Y-81847387D01*
X158445977Y-81710455D01*
X158486901Y-81557728D01*
X158486901Y-81399613D01*
X158486901Y-81392018D01*
X158486900Y-81392000D01*
X158486900Y-78524700D01*
X158506585Y-78457661D01*
X158559389Y-78411906D01*
X158610900Y-78400700D01*
X162092331Y-78400700D01*
X162092347Y-78400701D01*
X162099943Y-78400701D01*
X162258054Y-78400701D01*
X162258057Y-78400701D01*
X162410785Y-78359777D01*
X162493275Y-78312151D01*
X162547716Y-78280720D01*
X162659520Y-78168916D01*
X162659520Y-78168914D01*
X162669724Y-78158711D01*
X162669727Y-78158706D01*
X171103616Y-69724819D01*
X171164939Y-69691334D01*
X171191297Y-69688500D01*
X172292903Y-69688500D01*
X172359942Y-69708185D01*
X172380584Y-69724819D01*
X173433584Y-70777819D01*
X173467069Y-70839142D01*
X173462085Y-70908834D01*
X173420213Y-70964767D01*
X173354749Y-70989184D01*
X173345903Y-70989500D01*
X172407129Y-70989500D01*
X172407123Y-70989501D01*
X172347516Y-70995908D01*
X172212671Y-71046202D01*
X172212664Y-71046206D01*
X172097455Y-71132452D01*
X172097452Y-71132455D01*
X172011206Y-71247664D01*
X172011202Y-71247671D01*
X171960908Y-71382517D01*
X171954501Y-71442116D01*
X171954500Y-71442135D01*
X171954500Y-73337870D01*
X171954501Y-73337876D01*
X171960908Y-73397483D01*
X172011202Y-73532328D01*
X172011206Y-73532335D01*
X172097452Y-73647544D01*
X172097455Y-73647547D01*
X172212664Y-73733793D01*
X172212671Y-73733797D01*
X172347517Y-73784091D01*
X172347516Y-73784091D01*
X172354444Y-73784835D01*
X172407127Y-73790500D01*
X174302872Y-73790499D01*
X174362483Y-73784091D01*
X174497331Y-73733796D01*
X174612546Y-73647546D01*
X174698796Y-73532331D01*
X174726429Y-73458243D01*
X174728601Y-73452420D01*
X174770471Y-73396486D01*
X174835936Y-73372068D01*
X174904209Y-73386919D01*
X174932464Y-73408071D01*
X174982636Y-73458243D01*
X174982641Y-73458247D01*
X175050803Y-73507769D01*
X175160978Y-73587815D01*
X175289375Y-73653237D01*
X175357393Y-73687895D01*
X175357396Y-73687896D01*
X175462221Y-73721955D01*
X175567049Y-73756015D01*
X175784778Y-73790500D01*
X175784779Y-73790500D01*
X176005221Y-73790500D01*
X176005222Y-73790500D01*
X176222951Y-73756015D01*
X176432606Y-73687895D01*
X176629022Y-73587815D01*
X176807365Y-73458242D01*
X176963242Y-73302365D01*
X177092815Y-73124022D01*
X177192895Y-72927606D01*
X177261015Y-72717951D01*
X177295500Y-72500222D01*
X177295500Y-72279778D01*
X177261015Y-72062049D01*
X177202772Y-71882793D01*
X177192896Y-71852396D01*
X177192895Y-71852393D01*
X177156344Y-71780659D01*
X177092815Y-71655978D01*
X177034501Y-71575715D01*
X176963247Y-71477641D01*
X176963243Y-71477636D01*
X176807363Y-71321756D01*
X176807358Y-71321752D01*
X176629025Y-71192187D01*
X176629024Y-71192186D01*
X176629022Y-71192185D01*
X176511791Y-71132452D01*
X176432606Y-71092104D01*
X176432603Y-71092103D01*
X176222952Y-71023985D01*
X176114086Y-71006742D01*
X176005222Y-70989500D01*
X175784778Y-70989500D01*
X175744320Y-70995908D01*
X175567045Y-71023985D01*
X175496794Y-71046811D01*
X175426953Y-71048806D01*
X175370796Y-71016561D01*
X173080590Y-68726355D01*
X173080588Y-68726352D01*
X172961717Y-68607481D01*
X172961716Y-68607480D01*
X172858483Y-68547879D01*
X172858482Y-68547878D01*
X172824783Y-68528422D01*
X172768881Y-68513443D01*
X172672057Y-68487499D01*
X172513943Y-68487499D01*
X172506347Y-68487499D01*
X172506331Y-68487500D01*
X170812140Y-68487500D01*
X170771219Y-68498464D01*
X170771219Y-68498465D01*
X170733951Y-68508451D01*
X170659414Y-68528423D01*
X170659409Y-68528426D01*
X170522490Y-68607475D01*
X170522482Y-68607481D01*
X170450542Y-68679422D01*
X170410680Y-68719284D01*
X170410678Y-68719286D01*
X166172227Y-72957738D01*
X161966584Y-77163381D01*
X161905261Y-77196866D01*
X161878903Y-77199700D01*
X157807338Y-77199700D01*
X157757523Y-77213048D01*
X157732475Y-77212451D01*
X157707666Y-77215994D01*
X157698142Y-77211633D01*
X157687674Y-77211384D01*
X157666923Y-77197339D01*
X157644139Y-77186907D01*
X157638485Y-77178091D01*
X157629812Y-77172221D01*
X157619948Y-77149186D01*
X157606421Y-77128093D01*
X157606431Y-77117618D01*
X157602309Y-77107992D01*
X157606464Y-77083280D01*
X157606489Y-77058223D01*
X157613110Y-77043760D01*
X157613896Y-77039090D01*
X157621170Y-77026151D01*
X157670651Y-76949319D01*
X157672975Y-76945845D01*
X158055395Y-76394585D01*
X158057955Y-76391032D01*
X158555130Y-75726838D01*
X158557968Y-75723192D01*
X159079757Y-75078384D01*
X159082740Y-75074839D01*
X159167824Y-74977459D01*
X159376538Y-74738580D01*
X159628459Y-74450250D01*
X159631585Y-74446804D01*
X160200530Y-73843236D01*
X160203743Y-73839953D01*
X160795099Y-73258276D01*
X160798459Y-73255093D01*
X161411342Y-72696175D01*
X161414802Y-72693138D01*
X162048345Y-72157771D01*
X162051921Y-72154863D01*
X162705267Y-71643771D01*
X162708950Y-71641001D01*
X163381093Y-71154973D01*
X163384877Y-71152344D01*
X164074926Y-70692021D01*
X164078786Y-70689551D01*
X164785712Y-70255624D01*
X164789692Y-70253283D01*
X165512486Y-69846368D01*
X165516531Y-69844190D01*
X166254119Y-69464889D01*
X166258404Y-69462789D01*
X167077771Y-69081091D01*
X167082273Y-69079102D01*
X167916307Y-68730726D01*
X167920885Y-68728922D01*
X168768240Y-68414428D01*
X168772851Y-68412821D01*
X169632195Y-68132701D01*
X169636959Y-68131254D01*
X170506844Y-67885979D01*
X170511638Y-67884732D01*
X171390700Y-67674685D01*
X171395527Y-67673634D01*
X172282361Y-67499155D01*
X172287227Y-67498300D01*
X173180344Y-67359677D01*
X173185268Y-67359015D01*
X174083220Y-67256474D01*
X174088149Y-67256012D01*
X174989528Y-67189714D01*
X174994489Y-67189449D01*
X175897814Y-67159505D01*
X175902726Y-67159441D01*
X176806405Y-67165896D01*
X176811376Y-67166032D01*
X177715926Y-67208917D01*
X177720890Y-67209252D01*
X178622858Y-67288430D01*
X178627789Y-67288962D01*
X179525910Y-67404319D01*
X179530754Y-67405040D01*
X180423505Y-67556381D01*
X180428400Y-67557313D01*
X181314304Y-67744386D01*
X181319108Y-67745502D01*
X182196819Y-67968023D01*
X182201579Y-67969332D01*
X183069629Y-68226929D01*
X183074363Y-68228438D01*
X183495774Y-68372151D01*
X183931347Y-68520694D01*
X183936029Y-68522397D01*
X184366237Y-68688686D01*
X184780574Y-68848840D01*
X184785137Y-68850709D01*
X185615932Y-69210838D01*
X185620425Y-69212894D01*
X186436059Y-69606095D01*
X186440487Y-69608341D01*
X187239744Y-70034033D01*
X187243924Y-70036365D01*
X187963031Y-70455985D01*
X187966959Y-70458377D01*
X188470094Y-70777819D01*
X188669911Y-70904684D01*
X188673786Y-70907247D01*
X188876409Y-71046811D01*
X189168012Y-71247664D01*
X189359523Y-71379574D01*
X189363294Y-71382277D01*
X190030857Y-71879962D01*
X190034489Y-71882777D01*
X190372233Y-72154840D01*
X190682947Y-72405130D01*
X190686510Y-72408112D01*
X191314912Y-72954361D01*
X191318356Y-72957469D01*
X191637557Y-73256657D01*
X191925881Y-73526903D01*
X191929211Y-73530144D01*
X192514943Y-74121902D01*
X192518149Y-74125264D01*
X193081329Y-74738580D01*
X193084407Y-74742061D01*
X193624201Y-75376026D01*
X193627145Y-75379617D01*
X193941855Y-75778597D01*
X194142821Y-76033374D01*
X194145629Y-76037075D01*
X194636439Y-76709674D01*
X194639107Y-76713478D01*
X194804131Y-76958392D01*
X194977703Y-77215994D01*
X195104309Y-77403891D01*
X195106850Y-77407820D01*
X195514000Y-78064222D01*
X195516407Y-78068272D01*
X195898269Y-78739565D01*
X195900520Y-78743703D01*
X196256609Y-79429022D01*
X196258701Y-79433243D01*
X196588463Y-80131516D01*
X196590250Y-80135477D01*
X196915135Y-80890887D01*
X196916648Y-80894566D01*
X197217116Y-81659961D01*
X197218510Y-81663687D01*
X197494266Y-82438311D01*
X197495540Y-82442080D01*
X197560847Y-82646015D01*
X197674258Y-83000169D01*
X197746302Y-83225141D01*
X197747459Y-83228966D01*
X197970343Y-84010883D01*
X197971380Y-84014760D01*
X198168829Y-84803414D01*
X198169741Y-84807322D01*
X198341572Y-85601993D01*
X198342357Y-85605929D01*
X198488377Y-86405712D01*
X198489038Y-86409703D01*
X198576750Y-86998191D01*
X198577285Y-87002233D01*
X198645603Y-87593286D01*
X198646004Y-87597343D01*
X198694852Y-88190281D01*
X198695120Y-88194349D01*
X198724449Y-88788594D01*
X198724583Y-88792669D01*
X198733307Y-89323466D01*
X198733309Y-89323597D01*
X198733442Y-89332278D01*
X198733263Y-89333004D01*
X198734377Y-89393088D01*
X198734384Y-89393488D01*
X198734381Y-89393496D01*
X198734399Y-89395395D01*
X198734399Y-89460911D01*
X198734813Y-89467549D01*
X198734417Y-89530777D01*
X198734384Y-89532962D01*
X198715318Y-90330828D01*
X198715136Y-90335197D01*
X198668021Y-91130770D01*
X198667686Y-91135129D01*
X198592550Y-91928583D01*
X198592061Y-91932928D01*
X198488999Y-92723230D01*
X198488357Y-92727555D01*
X198357498Y-93513730D01*
X198356704Y-93518029D01*
X198198212Y-94299095D01*
X198197267Y-94303364D01*
X198017149Y-95054126D01*
X198016622Y-95056243D01*
X198010605Y-95079511D01*
X198010192Y-95081066D01*
X197710614Y-96180475D01*
X197709731Y-96183559D01*
X197382057Y-97274038D01*
X197381094Y-97277098D01*
X197025325Y-98358723D01*
X197024283Y-98361757D01*
X196640661Y-99433792D01*
X196639541Y-99436799D01*
X196228308Y-100498569D01*
X196227111Y-100501545D01*
X195788516Y-101552405D01*
X195787319Y-101555178D01*
X195257422Y-102742558D01*
X195256238Y-102745132D01*
X194699304Y-103920204D01*
X194698061Y-103922750D01*
X194114454Y-105084738D01*
X194113154Y-105087255D01*
X193503115Y-106235678D01*
X193501757Y-106238164D01*
X192865681Y-107372284D01*
X192864267Y-107374739D01*
X192202244Y-108494372D01*
X192200965Y-108496487D01*
X191443723Y-109720786D01*
X191442598Y-109722572D01*
X190664378Y-110934190D01*
X190663222Y-110935956D01*
X189864517Y-112134112D01*
X189863331Y-112135858D01*
X189044377Y-113320205D01*
X189043162Y-113321931D01*
X188204146Y-114492194D01*
X188202902Y-114493899D01*
X187356764Y-115632651D01*
X187350166Y-115640789D01*
X176518790Y-127902396D01*
X176514795Y-127906707D01*
X172384301Y-132158328D01*
X172379291Y-132163203D01*
X163038064Y-140752183D01*
X163032406Y-140757078D01*
X153693812Y-148357257D01*
X153690640Y-148359754D01*
X151638403Y-149921713D01*
X151573135Y-149946651D01*
X151504746Y-149932343D01*
X151477949Y-149912988D01*
X144158616Y-142967302D01*
X143399965Y-142247379D01*
X143398609Y-142246071D01*
X130364080Y-129472544D01*
X126687082Y-125869174D01*
X126684977Y-125867062D01*
X125440977Y-124587894D01*
X125439610Y-124586465D01*
X124427646Y-123512127D01*
X124214043Y-123285358D01*
X124212721Y-123283932D01*
X124192883Y-123262187D01*
X123475609Y-122475943D01*
X123008054Y-121963430D01*
X123006733Y-121961959D01*
X121823282Y-120622411D01*
X121822041Y-120620984D01*
X121801691Y-120597196D01*
X120660096Y-119262718D01*
X120658831Y-119261216D01*
X119518651Y-117884532D01*
X119517429Y-117883031D01*
X118399459Y-116488468D01*
X118398234Y-116486915D01*
X118329830Y-116398742D01*
X117302929Y-115075058D01*
X117301372Y-115073008D01*
X116521919Y-114024025D01*
X116520061Y-114021456D01*
X116455666Y-113930000D01*
X115767997Y-112953341D01*
X115766211Y-112950735D01*
X115641557Y-112763716D01*
X115109918Y-111966092D01*
X115041681Y-111863715D01*
X115039957Y-111861055D01*
X114343466Y-110755887D01*
X114341810Y-110753183D01*
X113673796Y-109630566D01*
X113672210Y-109627821D01*
X113354977Y-109062284D01*
X113033110Y-108488485D01*
X113031639Y-108485784D01*
X112421816Y-107330370D01*
X112420426Y-107327653D01*
X111840292Y-106156931D01*
X111838922Y-106154074D01*
X111376738Y-105156864D01*
X111375393Y-105153858D01*
X111096617Y-104507943D01*
X111076846Y-104462135D01*
X115439500Y-104462135D01*
X115439500Y-106357870D01*
X115439501Y-106357876D01*
X115445908Y-106417483D01*
X115496202Y-106552328D01*
X115496206Y-106552335D01*
X115582452Y-106667544D01*
X115582455Y-106667547D01*
X115697664Y-106753793D01*
X115697671Y-106753797D01*
X115832517Y-106804091D01*
X115832516Y-106804091D01*
X115839444Y-106804835D01*
X115892127Y-106810500D01*
X117787872Y-106810499D01*
X117847483Y-106804091D01*
X117982331Y-106753796D01*
X118097546Y-106667546D01*
X118183796Y-106552331D01*
X118211429Y-106478243D01*
X118213601Y-106472420D01*
X118255471Y-106416486D01*
X118320936Y-106392068D01*
X118389209Y-106406919D01*
X118417464Y-106428071D01*
X118467636Y-106478243D01*
X118467641Y-106478247D01*
X118569603Y-106552326D01*
X118645978Y-106607815D01*
X118774375Y-106673237D01*
X118842393Y-106707895D01*
X118842396Y-106707896D01*
X118947221Y-106741955D01*
X119052049Y-106776015D01*
X119269778Y-106810500D01*
X119269779Y-106810500D01*
X119490221Y-106810500D01*
X119490222Y-106810500D01*
X119707951Y-106776015D01*
X119917606Y-106707895D01*
X120114022Y-106607815D01*
X120292365Y-106478242D01*
X120448242Y-106322365D01*
X120577815Y-106144022D01*
X120677895Y-105947606D01*
X120746015Y-105737951D01*
X120780500Y-105520222D01*
X120780500Y-105299778D01*
X120746015Y-105082049D01*
X120677895Y-104872394D01*
X120677895Y-104872393D01*
X120639919Y-104797862D01*
X120577815Y-104675978D01*
X120551108Y-104639219D01*
X120448247Y-104497641D01*
X120448243Y-104497636D01*
X120292363Y-104341756D01*
X120292358Y-104341752D01*
X120114025Y-104212187D01*
X120114024Y-104212186D01*
X120114022Y-104212185D01*
X120046909Y-104177989D01*
X119917606Y-104112104D01*
X119917603Y-104112103D01*
X119707952Y-104043985D01*
X119599086Y-104026742D01*
X119490222Y-104009500D01*
X119269778Y-104009500D01*
X119197201Y-104020995D01*
X119052047Y-104043985D01*
X118842396Y-104112103D01*
X118842393Y-104112104D01*
X118645974Y-104212187D01*
X118467641Y-104341752D01*
X118467636Y-104341756D01*
X118417463Y-104391929D01*
X118356140Y-104425413D01*
X118286448Y-104420428D01*
X118230515Y-104378557D01*
X118213601Y-104347580D01*
X118183797Y-104267671D01*
X118183793Y-104267664D01*
X118097547Y-104152455D01*
X118097544Y-104152452D01*
X117982335Y-104066206D01*
X117982328Y-104066202D01*
X117847482Y-104015908D01*
X117847483Y-104015908D01*
X117787883Y-104009501D01*
X117787881Y-104009500D01*
X117787873Y-104009500D01*
X117787864Y-104009500D01*
X115892129Y-104009500D01*
X115892123Y-104009501D01*
X115832516Y-104015908D01*
X115697671Y-104066202D01*
X115697664Y-104066206D01*
X115582455Y-104152452D01*
X115582452Y-104152455D01*
X115496206Y-104267664D01*
X115496202Y-104267671D01*
X115445908Y-104402517D01*
X115439501Y-104462116D01*
X115439500Y-104462135D01*
X111076846Y-104462135D01*
X111005882Y-104297713D01*
X110939796Y-104144596D01*
X110938540Y-104141575D01*
X110938519Y-104141523D01*
X110540683Y-103148028D01*
X110529898Y-103121096D01*
X110528715Y-103118023D01*
X110415725Y-102812595D01*
X110147319Y-102087056D01*
X110146246Y-102084036D01*
X109792330Y-101043205D01*
X109791342Y-101040166D01*
X109465215Y-99990383D01*
X109464289Y-99987256D01*
X109451343Y-99941312D01*
X109166153Y-98929175D01*
X109165306Y-98926007D01*
X109128821Y-98781971D01*
X108895383Y-97860412D01*
X108894622Y-97857230D01*
X108653151Y-96785109D01*
X108652399Y-96781512D01*
X108509493Y-96042543D01*
X108508759Y-96038363D01*
X108391441Y-95295241D01*
X108390857Y-95291072D01*
X108299203Y-94544360D01*
X108298764Y-94540190D01*
X108232878Y-93790716D01*
X108232579Y-93786463D01*
X108192552Y-93035281D01*
X108192398Y-93031013D01*
X108183262Y-92544786D01*
X108179454Y-92342129D01*
X108179250Y-92329723D01*
X108180297Y-92325164D01*
X108178251Y-92268931D01*
X108178231Y-92267714D01*
X108178247Y-92267652D01*
X108178214Y-92265906D01*
X108178130Y-92210836D01*
X108178129Y-92210832D01*
X108178129Y-92210830D01*
X108177056Y-92202775D01*
X108177509Y-92202714D01*
X108175313Y-92188167D01*
X108162673Y-91840666D01*
X108094680Y-89971478D01*
X108094664Y-89963008D01*
X108214501Y-86257711D01*
X108214900Y-86251033D01*
X108256309Y-85775123D01*
X108256853Y-85770077D01*
X108266018Y-85698823D01*
X108318566Y-85290244D01*
X108319313Y-85285249D01*
X108400706Y-84808307D01*
X108401649Y-84803395D01*
X108502579Y-84330205D01*
X108503733Y-84325293D01*
X108550749Y-84142135D01*
X111629500Y-84142135D01*
X111629500Y-86037870D01*
X111629501Y-86037876D01*
X111635908Y-86097483D01*
X111686202Y-86232328D01*
X111686206Y-86232335D01*
X111772452Y-86347544D01*
X111772455Y-86347547D01*
X111887664Y-86433793D01*
X111887671Y-86433797D01*
X112022517Y-86484091D01*
X112022516Y-86484091D01*
X112029444Y-86484835D01*
X112082127Y-86490500D01*
X113977872Y-86490499D01*
X114037483Y-86484091D01*
X114172331Y-86433796D01*
X114287546Y-86347546D01*
X114373796Y-86232331D01*
X114401429Y-86158243D01*
X114403601Y-86152420D01*
X114445471Y-86096486D01*
X114510936Y-86072068D01*
X114579209Y-86086919D01*
X114607464Y-86108071D01*
X114657636Y-86158243D01*
X114657641Y-86158247D01*
X114794586Y-86257742D01*
X114835978Y-86287815D01*
X114964375Y-86353237D01*
X115032393Y-86387895D01*
X115032396Y-86387896D01*
X115093416Y-86407722D01*
X115242049Y-86456015D01*
X115459778Y-86490500D01*
X115459779Y-86490500D01*
X115680221Y-86490500D01*
X115680222Y-86490500D01*
X115897951Y-86456015D01*
X116107606Y-86387895D01*
X116304022Y-86287815D01*
X116482365Y-86158242D01*
X116638242Y-86002365D01*
X116767815Y-85824022D01*
X116867895Y-85627606D01*
X116936015Y-85417951D01*
X116970500Y-85200222D01*
X116970500Y-84979778D01*
X116936015Y-84762049D01*
X116901955Y-84657221D01*
X116867896Y-84552396D01*
X116867895Y-84552393D01*
X116833237Y-84484375D01*
X116767815Y-84355978D01*
X116663882Y-84212925D01*
X116638247Y-84177641D01*
X116638243Y-84177636D01*
X116482363Y-84021756D01*
X116482358Y-84021752D01*
X116304025Y-83892187D01*
X116304024Y-83892186D01*
X116304022Y-83892185D01*
X116204823Y-83841640D01*
X116107606Y-83792104D01*
X116107603Y-83792103D01*
X115897952Y-83723985D01*
X115789086Y-83706742D01*
X115680222Y-83689500D01*
X115459778Y-83689500D01*
X115387201Y-83700995D01*
X115242047Y-83723985D01*
X115032396Y-83792103D01*
X115032393Y-83792104D01*
X114835974Y-83892187D01*
X114657641Y-84021752D01*
X114657636Y-84021756D01*
X114607463Y-84071929D01*
X114546140Y-84105413D01*
X114476448Y-84100428D01*
X114420515Y-84058557D01*
X114403601Y-84027580D01*
X114373797Y-83947671D01*
X114373793Y-83947664D01*
X114287547Y-83832455D01*
X114287544Y-83832452D01*
X114172335Y-83746206D01*
X114172328Y-83746202D01*
X114037482Y-83695908D01*
X114037483Y-83695908D01*
X113977883Y-83689501D01*
X113977881Y-83689500D01*
X113977873Y-83689500D01*
X113977864Y-83689500D01*
X112082129Y-83689500D01*
X112082123Y-83689501D01*
X112022516Y-83695908D01*
X111887671Y-83746202D01*
X111887664Y-83746206D01*
X111772455Y-83832452D01*
X111772452Y-83832455D01*
X111686206Y-83947664D01*
X111686202Y-83947671D01*
X111635908Y-84082517D01*
X111629501Y-84142116D01*
X111629500Y-84142135D01*
X108550749Y-84142135D01*
X108624118Y-83856310D01*
X108625351Y-83851852D01*
X108628383Y-83841640D01*
X108855581Y-83076276D01*
X108856824Y-83072334D01*
X108882997Y-82993890D01*
X109113009Y-82304499D01*
X109114381Y-82300606D01*
X109396123Y-81541752D01*
X109397625Y-81537909D01*
X109704589Y-80788936D01*
X109706187Y-80785214D01*
X109909843Y-80332135D01*
X142109500Y-80332135D01*
X142109500Y-82227870D01*
X142109501Y-82227876D01*
X142115908Y-82287483D01*
X142166202Y-82422328D01*
X142166206Y-82422335D01*
X142252452Y-82537544D01*
X142252455Y-82537547D01*
X142367664Y-82623793D01*
X142367671Y-82623797D01*
X142502517Y-82674091D01*
X142502516Y-82674091D01*
X142509444Y-82674835D01*
X142562127Y-82680500D01*
X144457872Y-82680499D01*
X144517483Y-82674091D01*
X144652331Y-82623796D01*
X144767546Y-82537546D01*
X144853796Y-82422331D01*
X144881429Y-82348243D01*
X144883601Y-82342420D01*
X144925471Y-82286486D01*
X144990936Y-82262068D01*
X145059209Y-82276919D01*
X145087464Y-82298071D01*
X145137636Y-82348243D01*
X145137641Y-82348247D01*
X145239603Y-82422326D01*
X145315978Y-82477815D01*
X145444375Y-82543237D01*
X145512393Y-82577895D01*
X145512396Y-82577896D01*
X145579525Y-82599707D01*
X145722049Y-82646015D01*
X145939778Y-82680500D01*
X145939779Y-82680500D01*
X146160221Y-82680500D01*
X146160222Y-82680500D01*
X146377951Y-82646015D01*
X146587606Y-82577895D01*
X146784022Y-82477815D01*
X146962365Y-82348242D01*
X147118242Y-82192365D01*
X147247815Y-82014022D01*
X147347895Y-81817606D01*
X147416015Y-81607951D01*
X147450500Y-81390222D01*
X147450500Y-81169778D01*
X147416015Y-80952049D01*
X147365035Y-80795147D01*
X147347896Y-80742396D01*
X147347895Y-80742393D01*
X147313237Y-80674375D01*
X147247815Y-80545978D01*
X147189501Y-80465715D01*
X147118247Y-80367641D01*
X147118243Y-80367636D01*
X146962363Y-80211756D01*
X146962358Y-80211752D01*
X146784025Y-80082187D01*
X146784024Y-80082186D01*
X146784022Y-80082185D01*
X146666791Y-80022452D01*
X146587606Y-79982104D01*
X146587603Y-79982103D01*
X146377952Y-79913985D01*
X146269086Y-79896742D01*
X146160222Y-79879500D01*
X145939778Y-79879500D01*
X145867201Y-79890995D01*
X145722047Y-79913985D01*
X145512396Y-79982103D01*
X145512393Y-79982104D01*
X145315974Y-80082187D01*
X145137641Y-80211752D01*
X145137636Y-80211756D01*
X145087463Y-80261929D01*
X145026140Y-80295413D01*
X144956448Y-80290428D01*
X144900515Y-80248557D01*
X144883601Y-80217580D01*
X144853797Y-80137671D01*
X144853793Y-80137664D01*
X144767547Y-80022455D01*
X144767544Y-80022452D01*
X144652335Y-79936206D01*
X144652328Y-79936202D01*
X144517482Y-79885908D01*
X144517483Y-79885908D01*
X144457883Y-79879501D01*
X144457881Y-79879500D01*
X144457873Y-79879500D01*
X144457864Y-79879500D01*
X142562129Y-79879500D01*
X142562123Y-79879501D01*
X142502516Y-79885908D01*
X142367671Y-79936202D01*
X142367664Y-79936206D01*
X142252455Y-80022452D01*
X142252452Y-80022455D01*
X142166206Y-80137664D01*
X142166202Y-80137671D01*
X142115908Y-80272517D01*
X142109501Y-80332116D01*
X142109500Y-80332135D01*
X109909843Y-80332135D01*
X110038090Y-80046822D01*
X110039815Y-80043151D01*
X110396208Y-79316342D01*
X110398088Y-79312667D01*
X110438930Y-79235980D01*
X110778526Y-78598330D01*
X110780541Y-78594697D01*
X111178680Y-77905126D01*
X111180875Y-77901474D01*
X111602849Y-77226362D01*
X111605146Y-77222826D01*
X112050525Y-76562851D01*
X112052955Y-76559385D01*
X112521103Y-75915493D01*
X112523671Y-75912087D01*
X113014101Y-75284941D01*
X113016773Y-75281644D01*
X113528875Y-74672027D01*
X113531654Y-74668835D01*
X114064664Y-74077648D01*
X114067638Y-74074466D01*
X114291328Y-73843268D01*
X114615956Y-73507744D01*
X114619013Y-73504692D01*
X115187046Y-72957709D01*
X115190199Y-72954780D01*
X115777174Y-72428277D01*
X115780406Y-72425478D01*
X116385690Y-71920022D01*
X116389034Y-71917329D01*
X117000828Y-71442135D01*
X125599500Y-71442135D01*
X125599500Y-73337870D01*
X125599501Y-73337876D01*
X125605908Y-73397483D01*
X125656202Y-73532328D01*
X125656206Y-73532335D01*
X125742452Y-73647544D01*
X125742455Y-73647547D01*
X125857664Y-73733793D01*
X125857671Y-73733797D01*
X125992517Y-73784091D01*
X125992516Y-73784091D01*
X125999444Y-73784835D01*
X126052127Y-73790500D01*
X127947872Y-73790499D01*
X128007483Y-73784091D01*
X128142331Y-73733796D01*
X128257546Y-73647546D01*
X128343796Y-73532331D01*
X128371429Y-73458243D01*
X128373601Y-73452420D01*
X128415471Y-73396486D01*
X128480936Y-73372068D01*
X128549209Y-73386919D01*
X128577464Y-73408071D01*
X128627636Y-73458243D01*
X128627641Y-73458247D01*
X128695803Y-73507769D01*
X128805978Y-73587815D01*
X128934375Y-73653237D01*
X129002393Y-73687895D01*
X129002396Y-73687896D01*
X129107221Y-73721955D01*
X129212049Y-73756015D01*
X129429778Y-73790500D01*
X129429779Y-73790500D01*
X129650221Y-73790500D01*
X129650222Y-73790500D01*
X129867951Y-73756015D01*
X130077606Y-73687895D01*
X130274022Y-73587815D01*
X130452365Y-73458242D01*
X130608242Y-73302365D01*
X130737815Y-73124022D01*
X130837895Y-72927606D01*
X130906015Y-72717951D01*
X130940500Y-72500222D01*
X130940500Y-72279778D01*
X130906015Y-72062049D01*
X130847772Y-71882793D01*
X130837896Y-71852396D01*
X130837895Y-71852393D01*
X130801344Y-71780659D01*
X130737815Y-71655978D01*
X130679501Y-71575715D01*
X130608247Y-71477641D01*
X130608243Y-71477636D01*
X130452363Y-71321756D01*
X130452358Y-71321752D01*
X130274025Y-71192187D01*
X130274024Y-71192186D01*
X130274022Y-71192185D01*
X130156791Y-71132452D01*
X130077606Y-71092104D01*
X130077603Y-71092103D01*
X129867952Y-71023985D01*
X129759086Y-71006742D01*
X129650222Y-70989500D01*
X129429778Y-70989500D01*
X129357201Y-71000995D01*
X129212047Y-71023985D01*
X129002396Y-71092103D01*
X129002393Y-71092104D01*
X128805974Y-71192187D01*
X128627641Y-71321752D01*
X128627636Y-71321756D01*
X128577463Y-71371929D01*
X128516140Y-71405413D01*
X128446448Y-71400428D01*
X128390515Y-71358557D01*
X128373601Y-71327580D01*
X128343797Y-71247671D01*
X128343793Y-71247664D01*
X128257547Y-71132455D01*
X128257544Y-71132452D01*
X128142335Y-71046206D01*
X128142328Y-71046202D01*
X128007482Y-70995908D01*
X128007483Y-70995908D01*
X127947883Y-70989501D01*
X127947881Y-70989500D01*
X127947873Y-70989500D01*
X127947864Y-70989500D01*
X126052129Y-70989500D01*
X126052123Y-70989501D01*
X125992516Y-70995908D01*
X125857671Y-71046202D01*
X125857664Y-71046206D01*
X125742455Y-71132452D01*
X125742452Y-71132455D01*
X125656206Y-71247664D01*
X125656202Y-71247671D01*
X125605908Y-71382517D01*
X125599501Y-71442116D01*
X125599500Y-71442135D01*
X117000828Y-71442135D01*
X117011796Y-71433616D01*
X117015208Y-71431062D01*
X117654705Y-70969669D01*
X117658255Y-70967203D01*
X118236575Y-70580299D01*
X118313780Y-70528648D01*
X118317409Y-70526310D01*
X118987340Y-70111671D01*
X118990991Y-70109500D01*
X119675392Y-69718744D01*
X119679140Y-69716692D01*
X120376902Y-69350458D01*
X120380734Y-69348533D01*
X121091053Y-69007243D01*
X121094941Y-69005458D01*
X121816884Y-68689560D01*
X121820899Y-68687887D01*
X122553563Y-68397774D01*
X122557620Y-68396250D01*
X123300343Y-68132192D01*
X123304184Y-68130900D01*
X123994470Y-67911531D01*
X123998260Y-67910394D01*
X124695444Y-67713406D01*
X124699205Y-67712409D01*
X125402450Y-67538047D01*
X125406245Y-67537171D01*
X126114806Y-67385624D01*
X126118743Y-67384851D01*
X126818993Y-67259186D01*
X126823075Y-67258525D01*
X127527210Y-67156697D01*
X127531324Y-67156172D01*
X128238518Y-67078300D01*
X128242631Y-67077917D01*
X128951941Y-67024101D01*
X128956091Y-67023857D01*
X129056253Y-67019632D01*
X129682167Y-66993231D01*
X129686221Y-66993127D01*
X130412814Y-66986618D01*
X130416863Y-66986648D01*
G37*
%TD.AperFunction*%
%TA.AperFunction,Conductor*%
G36*
X143911942Y-108570185D02*
G01*
X143932584Y-108586819D01*
X161371139Y-126025374D01*
X161371149Y-126025385D01*
X161375479Y-126029715D01*
X161375480Y-126029716D01*
X161487284Y-126141520D01*
X161487286Y-126141521D01*
X161487290Y-126141524D01*
X161624209Y-126220573D01*
X161624216Y-126220577D01*
X161736019Y-126250534D01*
X161776942Y-126261500D01*
X161776943Y-126261500D01*
X172067331Y-126261500D01*
X172067347Y-126261501D01*
X172074943Y-126261501D01*
X172233054Y-126261501D01*
X172233057Y-126261501D01*
X172385785Y-126220577D01*
X172435904Y-126191639D01*
X172522716Y-126141520D01*
X172634520Y-126029716D01*
X172634520Y-126029714D01*
X172644728Y-126019507D01*
X172644730Y-126019504D01*
X172830797Y-125833436D01*
X172839589Y-125828635D01*
X172845721Y-125820706D01*
X172869745Y-125812169D01*
X172892118Y-125799953D01*
X172903868Y-125800044D01*
X172911558Y-125797312D01*
X172934424Y-125800282D01*
X172946719Y-125800378D01*
X172951814Y-125801569D01*
X173027049Y-125826015D01*
X173117697Y-125840372D01*
X173122078Y-125841397D01*
X173148715Y-125856485D01*
X173176367Y-125869594D01*
X173178825Y-125873541D01*
X173182872Y-125875834D01*
X173197119Y-125902921D01*
X173213299Y-125928905D01*
X173213232Y-125933555D01*
X173215397Y-125937671D01*
X173212738Y-125968159D01*
X173212301Y-125998768D01*
X173209691Y-126003095D01*
X173209327Y-126007277D01*
X173199525Y-126019954D01*
X173181516Y-126049819D01*
X158432155Y-140799181D01*
X158370832Y-140832666D01*
X158344474Y-140835500D01*
X153774951Y-140835500D01*
X153707912Y-140815815D01*
X153662157Y-140763011D01*
X153652213Y-140693853D01*
X153657020Y-140673183D01*
X153667988Y-140639425D01*
X153667989Y-140639418D01*
X153700000Y-140437317D01*
X153700000Y-140232682D01*
X153667990Y-140030582D01*
X153604755Y-139835968D01*
X153511859Y-139653650D01*
X153479474Y-139609077D01*
X153479474Y-139609076D01*
X152800000Y-140288551D01*
X152800000Y-140282339D01*
X152772741Y-140180606D01*
X152720080Y-140089394D01*
X152645606Y-140014920D01*
X152554394Y-139962259D01*
X152452661Y-139935000D01*
X152446446Y-139935000D01*
X153125922Y-139255524D01*
X153125921Y-139255523D01*
X153081359Y-139223147D01*
X153081350Y-139223141D01*
X152899031Y-139130244D01*
X152704417Y-139067009D01*
X152502317Y-139035000D01*
X152297683Y-139035000D01*
X152095582Y-139067009D01*
X151900968Y-139130244D01*
X151718651Y-139223139D01*
X151648444Y-139274148D01*
X151582637Y-139297627D01*
X151514583Y-139281801D01*
X151487878Y-139261510D01*
X151418657Y-139192289D01*
X151418656Y-139192288D01*
X151269334Y-139100186D01*
X151102797Y-139045001D01*
X151102795Y-139045000D01*
X151000016Y-139034500D01*
X151000009Y-139034500D01*
X150000097Y-139034500D01*
X149933058Y-139014815D01*
X149912416Y-138998181D01*
X137970819Y-127056584D01*
X137937334Y-126995261D01*
X137934500Y-126968903D01*
X137934500Y-114197648D01*
X143479500Y-114197648D01*
X143479500Y-114402351D01*
X143511522Y-114604534D01*
X143574781Y-114799223D01*
X143638691Y-114924653D01*
X143667585Y-114981359D01*
X143667715Y-114981613D01*
X143788028Y-115147213D01*
X143932786Y-115291971D01*
X144053226Y-115379474D01*
X144098390Y-115412287D01*
X144214607Y-115471503D01*
X144280776Y-115505218D01*
X144280778Y-115505218D01*
X144280781Y-115505220D01*
X144352322Y-115528465D01*
X144475465Y-115568477D01*
X144576557Y-115584488D01*
X144677648Y-115600500D01*
X144677649Y-115600500D01*
X144882351Y-115600500D01*
X144882352Y-115600500D01*
X145084534Y-115568477D01*
X145098842Y-115563827D01*
X145168682Y-115561831D01*
X145224842Y-115594077D01*
X152398181Y-122767416D01*
X152431666Y-122828739D01*
X152434500Y-122855097D01*
X152434500Y-126790500D01*
X152414815Y-126857539D01*
X152362011Y-126903294D01*
X152310501Y-126914500D01*
X152137130Y-126914500D01*
X152137123Y-126914501D01*
X152077516Y-126920908D01*
X151942671Y-126971202D01*
X151942664Y-126971206D01*
X151827455Y-127057452D01*
X151827452Y-127057455D01*
X151741206Y-127172664D01*
X151741202Y-127172671D01*
X151690908Y-127307517D01*
X151684501Y-127367116D01*
X151684501Y-127367123D01*
X151684500Y-127367135D01*
X151684500Y-129162870D01*
X151684501Y-129162876D01*
X151690908Y-129222483D01*
X151741202Y-129357328D01*
X151741206Y-129357335D01*
X151827452Y-129472544D01*
X151827455Y-129472547D01*
X151942664Y-129558793D01*
X151942671Y-129558797D01*
X151987618Y-129575561D01*
X152077517Y-129609091D01*
X152137127Y-129615500D01*
X152147685Y-129615499D01*
X152214723Y-129635179D01*
X152235372Y-129651818D01*
X152905591Y-130322037D01*
X152842007Y-130339075D01*
X152727993Y-130404901D01*
X152634901Y-130497993D01*
X152569075Y-130612007D01*
X152552037Y-130675591D01*
X151919728Y-130043282D01*
X151919727Y-130043282D01*
X151880380Y-130097439D01*
X151783904Y-130286782D01*
X151718242Y-130488869D01*
X151718242Y-130488872D01*
X151685000Y-130698753D01*
X151685000Y-130911246D01*
X151718242Y-131121127D01*
X151718242Y-131121130D01*
X151783904Y-131323217D01*
X151880375Y-131512550D01*
X151919728Y-131566716D01*
X152552037Y-130934408D01*
X152569075Y-130997993D01*
X152634901Y-131112007D01*
X152727993Y-131205099D01*
X152842007Y-131270925D01*
X152905590Y-131287962D01*
X152273282Y-131920269D01*
X152273282Y-131920270D01*
X152327449Y-131959624D01*
X152516782Y-132056095D01*
X152718870Y-132121757D01*
X152928754Y-132155000D01*
X153141246Y-132155000D01*
X153351127Y-132121757D01*
X153351130Y-132121757D01*
X153553217Y-132056095D01*
X153742554Y-131959622D01*
X153796716Y-131920270D01*
X153796717Y-131920270D01*
X153164408Y-131287962D01*
X153227993Y-131270925D01*
X153342007Y-131205099D01*
X153435099Y-131112007D01*
X153500925Y-130997993D01*
X153517962Y-130934409D01*
X154150270Y-131566717D01*
X154150270Y-131566716D01*
X154189622Y-131512554D01*
X154286095Y-131323217D01*
X154351757Y-131121130D01*
X154351757Y-131121127D01*
X154385000Y-130911246D01*
X154385000Y-130698753D01*
X154351757Y-130488872D01*
X154351757Y-130488869D01*
X154286095Y-130286782D01*
X154189624Y-130097449D01*
X154150270Y-130043282D01*
X154150269Y-130043282D01*
X153517962Y-130675590D01*
X153500925Y-130612007D01*
X153435099Y-130497993D01*
X153342007Y-130404901D01*
X153227993Y-130339075D01*
X153164409Y-130322037D01*
X153834627Y-129651818D01*
X153895950Y-129618333D01*
X153922307Y-129615499D01*
X153932872Y-129615499D01*
X153992483Y-129609091D01*
X154127331Y-129558796D01*
X154242546Y-129472546D01*
X154328796Y-129357331D01*
X154379091Y-129222483D01*
X154385500Y-129162873D01*
X154385499Y-127367128D01*
X154379091Y-127307517D01*
X154328796Y-127172669D01*
X154328795Y-127172668D01*
X154328793Y-127172664D01*
X154242547Y-127057455D01*
X154242544Y-127057452D01*
X154127335Y-126971206D01*
X154127328Y-126971202D01*
X153992482Y-126920908D01*
X153992483Y-126920908D01*
X153932883Y-126914501D01*
X153932881Y-126914500D01*
X153932873Y-126914500D01*
X153932865Y-126914500D01*
X153759500Y-126914500D01*
X153692461Y-126894815D01*
X153646706Y-126842011D01*
X153635500Y-126790500D01*
X153635500Y-122644059D01*
X153635501Y-122644046D01*
X153635501Y-122475945D01*
X153635501Y-122475943D01*
X153594577Y-122323215D01*
X153565639Y-122273095D01*
X153515520Y-122186284D01*
X153403716Y-122074480D01*
X153403715Y-122074479D01*
X153399385Y-122070149D01*
X153399374Y-122070139D01*
X146074077Y-114744842D01*
X146040592Y-114683519D01*
X146043828Y-114618841D01*
X146048477Y-114604534D01*
X146080500Y-114402352D01*
X146080500Y-114197648D01*
X146060053Y-114068554D01*
X146048477Y-113995465D01*
X146008466Y-113872325D01*
X145985220Y-113800781D01*
X145985218Y-113800778D01*
X145985218Y-113800776D01*
X145892419Y-113618650D01*
X145892287Y-113618390D01*
X145860092Y-113574077D01*
X145771971Y-113452786D01*
X145627213Y-113308028D01*
X145461613Y-113187715D01*
X145461612Y-113187714D01*
X145461610Y-113187713D01*
X145404653Y-113158691D01*
X145279223Y-113094781D01*
X145084534Y-113031522D01*
X144909995Y-113003878D01*
X144882352Y-112999500D01*
X144677648Y-112999500D01*
X144653329Y-113003351D01*
X144475465Y-113031522D01*
X144280776Y-113094781D01*
X144098386Y-113187715D01*
X143932786Y-113308028D01*
X143788028Y-113452786D01*
X143667715Y-113618386D01*
X143574781Y-113800776D01*
X143511522Y-113995465D01*
X143479500Y-114197648D01*
X137934500Y-114197648D01*
X137934500Y-111865475D01*
X137954185Y-111798436D01*
X138006989Y-111752681D01*
X138076147Y-111742737D01*
X138096820Y-111747545D01*
X138130458Y-111758475D01*
X138130461Y-111758475D01*
X138130466Y-111758477D01*
X138332648Y-111790500D01*
X138332649Y-111790500D01*
X138537351Y-111790500D01*
X138537352Y-111790500D01*
X138739534Y-111758477D01*
X138934219Y-111695220D01*
X139116610Y-111602287D01*
X139209590Y-111534732D01*
X139282213Y-111481971D01*
X139282215Y-111481968D01*
X139282219Y-111481966D01*
X139426966Y-111337219D01*
X139426968Y-111337215D01*
X139426971Y-111337213D01*
X139537214Y-111185474D01*
X139547287Y-111171610D01*
X139640220Y-110989219D01*
X139703477Y-110794534D01*
X139735500Y-110592352D01*
X139735500Y-110387648D01*
X139717794Y-110275859D01*
X139703477Y-110185465D01*
X139640218Y-109990776D01*
X139606503Y-109924607D01*
X139547287Y-109808390D01*
X139539556Y-109797749D01*
X139426971Y-109642786D01*
X139282213Y-109498028D01*
X139116614Y-109377715D01*
X139110006Y-109374348D01*
X139023917Y-109330483D01*
X138973123Y-109282511D01*
X138956328Y-109214690D01*
X138978865Y-109148555D01*
X139023917Y-109109516D01*
X139116610Y-109062287D01*
X139182290Y-109014568D01*
X139282213Y-108941971D01*
X139282215Y-108941968D01*
X139282219Y-108941966D01*
X139426966Y-108797219D01*
X139426968Y-108797215D01*
X139426971Y-108797213D01*
X139547284Y-108631614D01*
X139547283Y-108631614D01*
X139547287Y-108631610D01*
X139554117Y-108618204D01*
X139602091Y-108567409D01*
X139664602Y-108550500D01*
X143844903Y-108550500D01*
X143911942Y-108570185D01*
G37*
%TD.AperFunction*%
%TA.AperFunction,Conductor*%
G36*
X137054334Y-95042414D02*
G01*
X137110267Y-95084286D01*
X137134684Y-95149750D01*
X137135000Y-95158596D01*
X137135000Y-95352317D01*
X137167009Y-95554417D01*
X137230244Y-95749031D01*
X137323141Y-95931350D01*
X137323147Y-95931359D01*
X137355523Y-95975921D01*
X137355524Y-95975922D01*
X138035000Y-95296446D01*
X138035000Y-95302661D01*
X138062259Y-95404394D01*
X138114920Y-95495606D01*
X138189394Y-95570080D01*
X138280606Y-95622741D01*
X138382339Y-95650000D01*
X138388553Y-95650000D01*
X137709076Y-96329474D01*
X137753652Y-96361861D01*
X137846628Y-96409234D01*
X137897425Y-96457208D01*
X137914220Y-96525029D01*
X137891683Y-96591164D01*
X137846630Y-96630203D01*
X137753388Y-96677713D01*
X137587786Y-96798028D01*
X137443028Y-96942786D01*
X137322715Y-97108386D01*
X137229781Y-97290776D01*
X137166522Y-97485465D01*
X137134500Y-97687648D01*
X137134500Y-97892351D01*
X137166522Y-98094534D01*
X137229781Y-98289223D01*
X137322715Y-98471613D01*
X137443028Y-98637213D01*
X137587786Y-98781971D01*
X137753385Y-98902284D01*
X137753387Y-98902285D01*
X137753390Y-98902287D01*
X137846630Y-98949795D01*
X137897426Y-98997770D01*
X137914221Y-99065591D01*
X137891684Y-99131725D01*
X137846630Y-99170765D01*
X137753644Y-99218143D01*
X137709077Y-99250523D01*
X137709077Y-99250524D01*
X138388554Y-99930000D01*
X138382339Y-99930000D01*
X138280606Y-99957259D01*
X138189394Y-100009920D01*
X138114920Y-100084394D01*
X138062259Y-100175606D01*
X138035000Y-100277339D01*
X138035000Y-100283553D01*
X137355524Y-99604077D01*
X137355523Y-99604077D01*
X137323143Y-99648644D01*
X137230244Y-99830968D01*
X137167009Y-100025582D01*
X137135000Y-100227682D01*
X137135000Y-100432317D01*
X137167009Y-100634417D01*
X137230244Y-100829031D01*
X137323141Y-101011350D01*
X137323147Y-101011359D01*
X137355523Y-101055921D01*
X137355524Y-101055922D01*
X138035000Y-100376446D01*
X138035000Y-100382661D01*
X138062259Y-100484394D01*
X138114920Y-100575606D01*
X138189394Y-100650080D01*
X138280606Y-100702741D01*
X138382339Y-100730000D01*
X138388553Y-100730000D01*
X137709076Y-101409474D01*
X137753652Y-101441861D01*
X137846628Y-101489234D01*
X137897425Y-101537208D01*
X137914220Y-101605029D01*
X137891683Y-101671164D01*
X137846630Y-101710203D01*
X137753388Y-101757713D01*
X137587786Y-101878028D01*
X137443028Y-102022786D01*
X137322715Y-102188386D01*
X137229781Y-102370776D01*
X137166522Y-102565465D01*
X137134500Y-102767648D01*
X137134500Y-102972351D01*
X137166522Y-103174534D01*
X137229781Y-103369223D01*
X137322715Y-103551613D01*
X137443028Y-103717213D01*
X137587786Y-103861971D01*
X137678573Y-103927930D01*
X137753390Y-103982287D01*
X137819375Y-104015908D01*
X137846080Y-104029515D01*
X137896876Y-104077490D01*
X137913671Y-104145311D01*
X137891134Y-104211446D01*
X137846080Y-104250485D01*
X137753386Y-104297715D01*
X137587786Y-104418028D01*
X137443028Y-104562786D01*
X137322715Y-104728386D01*
X137229781Y-104910776D01*
X137166522Y-105105465D01*
X137134500Y-105307648D01*
X137134500Y-105512351D01*
X137166522Y-105714534D01*
X137229781Y-105909223D01*
X137273033Y-105994108D01*
X137316576Y-106079566D01*
X137322715Y-106091613D01*
X137443028Y-106257213D01*
X137494583Y-106308768D01*
X137528068Y-106370091D01*
X137523084Y-106439783D01*
X137494583Y-106484130D01*
X136965286Y-107013428D01*
X136853481Y-107125232D01*
X136853480Y-107125234D01*
X136822312Y-107179219D01*
X136774423Y-107262165D01*
X136733499Y-107414893D01*
X136733499Y-107414895D01*
X136733499Y-107582996D01*
X136733500Y-107583009D01*
X136733500Y-112719902D01*
X136713815Y-112786941D01*
X136661011Y-112832696D01*
X136591853Y-112842640D01*
X136528297Y-112813615D01*
X136521819Y-112807583D01*
X132109077Y-108394842D01*
X132075592Y-108333519D01*
X132078828Y-108268841D01*
X132083477Y-108254534D01*
X132115500Y-108052352D01*
X132115500Y-107847648D01*
X132083477Y-107645466D01*
X132063183Y-107583009D01*
X132045054Y-107527213D01*
X132020220Y-107450781D01*
X132020218Y-107450778D01*
X132020218Y-107450776D01*
X131980224Y-107372284D01*
X131927287Y-107268390D01*
X131912120Y-107247514D01*
X131806971Y-107102786D01*
X131662213Y-106958028D01*
X131496614Y-106837715D01*
X131490006Y-106834348D01*
X131403917Y-106790483D01*
X131353123Y-106742511D01*
X131336328Y-106674690D01*
X131358865Y-106608555D01*
X131403917Y-106569516D01*
X131496610Y-106522287D01*
X131554423Y-106480284D01*
X131662213Y-106401971D01*
X131662215Y-106401968D01*
X131662219Y-106401966D01*
X131806966Y-106257219D01*
X131806968Y-106257215D01*
X131806971Y-106257213D01*
X131862505Y-106180776D01*
X131927287Y-106091610D01*
X132020220Y-105909219D01*
X132083477Y-105714534D01*
X132115500Y-105512352D01*
X132115500Y-105307648D01*
X132083477Y-105105465D01*
X132045054Y-104987213D01*
X132020220Y-104910781D01*
X132020218Y-104910778D01*
X132020218Y-104910776D01*
X131976118Y-104824227D01*
X131927287Y-104728390D01*
X131863432Y-104640500D01*
X131806971Y-104562786D01*
X131662213Y-104418028D01*
X131496614Y-104297715D01*
X131478797Y-104288637D01*
X131403917Y-104250483D01*
X131353123Y-104202511D01*
X131336328Y-104134690D01*
X131358865Y-104068555D01*
X131403917Y-104029516D01*
X131496610Y-103982287D01*
X131571427Y-103927930D01*
X131662213Y-103861971D01*
X131662215Y-103861968D01*
X131662219Y-103861966D01*
X131806966Y-103717219D01*
X131806968Y-103717215D01*
X131806971Y-103717213D01*
X131862505Y-103640776D01*
X131927287Y-103551610D01*
X132020220Y-103369219D01*
X132083477Y-103174534D01*
X132115500Y-102972352D01*
X132115500Y-102767648D01*
X132083477Y-102565466D01*
X132020220Y-102370781D01*
X132020218Y-102370778D01*
X132020218Y-102370776D01*
X131967955Y-102268205D01*
X131927287Y-102188390D01*
X131919556Y-102177749D01*
X131806971Y-102022786D01*
X131662213Y-101878028D01*
X131496614Y-101757715D01*
X131490006Y-101754348D01*
X131403917Y-101710483D01*
X131353123Y-101662511D01*
X131336328Y-101594690D01*
X131358865Y-101528555D01*
X131403917Y-101489516D01*
X131496610Y-101442287D01*
X131541774Y-101409474D01*
X131662213Y-101321971D01*
X131662215Y-101321968D01*
X131662219Y-101321966D01*
X131806966Y-101177219D01*
X131806968Y-101177215D01*
X131806971Y-101177213D01*
X131863432Y-101099500D01*
X131927287Y-101011610D01*
X132020220Y-100829219D01*
X132083477Y-100634534D01*
X132115500Y-100432352D01*
X132115500Y-100227648D01*
X132083477Y-100025466D01*
X132078825Y-100011151D01*
X132076832Y-99941312D01*
X132109075Y-99885158D01*
X136923322Y-95070912D01*
X136984642Y-95037430D01*
X137054334Y-95042414D01*
G37*
%TD.AperFunction*%
%TA.AperFunction,Conductor*%
G36*
X139940203Y-100144884D02*
G01*
X139946672Y-100150908D01*
X140775284Y-100979520D01*
X140775286Y-100979521D01*
X140775290Y-100979524D01*
X140830871Y-101011613D01*
X140912216Y-101058577D01*
X141064943Y-101099501D01*
X141064945Y-101099501D01*
X141230654Y-101099501D01*
X141230670Y-101099500D01*
X143404524Y-101099500D01*
X143471563Y-101119185D01*
X143517318Y-101171989D01*
X143527262Y-101241147D01*
X143522455Y-101261817D01*
X143511524Y-101295457D01*
X143511523Y-101295464D01*
X143492532Y-101415366D01*
X143479500Y-101497648D01*
X143479500Y-101702352D01*
X143480788Y-101710485D01*
X143511522Y-101904534D01*
X143516173Y-101918848D01*
X143518165Y-101988690D01*
X143485921Y-102044842D01*
X139947181Y-105583583D01*
X139885858Y-105617068D01*
X139816166Y-105612084D01*
X139760233Y-105570212D01*
X139735816Y-105504748D01*
X139735500Y-105495902D01*
X139735500Y-105307648D01*
X139703477Y-105105465D01*
X139665054Y-104987213D01*
X139640220Y-104910781D01*
X139640218Y-104910778D01*
X139640218Y-104910776D01*
X139596118Y-104824227D01*
X139547287Y-104728390D01*
X139483432Y-104640500D01*
X139426971Y-104562786D01*
X139282213Y-104418028D01*
X139116614Y-104297715D01*
X139098797Y-104288637D01*
X139023917Y-104250483D01*
X138973123Y-104202511D01*
X138956328Y-104134690D01*
X138978865Y-104068555D01*
X139023917Y-104029516D01*
X139116610Y-103982287D01*
X139191427Y-103927930D01*
X139282213Y-103861971D01*
X139282215Y-103861968D01*
X139282219Y-103861966D01*
X139426966Y-103717219D01*
X139426968Y-103717215D01*
X139426971Y-103717213D01*
X139482505Y-103640776D01*
X139547287Y-103551610D01*
X139640220Y-103369219D01*
X139703477Y-103174534D01*
X139735500Y-102972352D01*
X139735500Y-102767648D01*
X139703477Y-102565466D01*
X139640220Y-102370781D01*
X139640218Y-102370778D01*
X139640218Y-102370776D01*
X139587955Y-102268205D01*
X139547287Y-102188390D01*
X139539556Y-102177749D01*
X139426971Y-102022786D01*
X139282213Y-101878028D01*
X139116611Y-101757713D01*
X139023369Y-101710203D01*
X138972574Y-101662229D01*
X138955779Y-101594407D01*
X138978317Y-101528273D01*
X139023371Y-101489234D01*
X139116346Y-101441861D01*
X139116347Y-101441861D01*
X139160921Y-101409474D01*
X138481447Y-100730000D01*
X138487661Y-100730000D01*
X138589394Y-100702741D01*
X138680606Y-100650080D01*
X138755080Y-100575606D01*
X138807741Y-100484394D01*
X138835000Y-100382661D01*
X138835000Y-100376446D01*
X139514474Y-101055921D01*
X139546859Y-101011349D01*
X139639755Y-100829031D01*
X139702990Y-100634417D01*
X139735000Y-100432317D01*
X139735000Y-100238597D01*
X139754685Y-100171558D01*
X139807489Y-100125803D01*
X139876647Y-100115859D01*
X139940203Y-100144884D01*
G37*
%TD.AperFunction*%
%TD*%
M02*
