%TF.GenerationSoftware,KiCad,Pcbnew,9.0.6*%
%TF.CreationDate,2026-02-17T17:24:49+05:30*%
%TF.ProjectId,blinky,626c696e-6b79-42e6-9b69-6361645f7063,rev?*%
%TF.SameCoordinates,Original*%
%TF.FileFunction,Drillmap*%
%TF.FilePolarity,Positive*%
%FSLAX45Y45*%
G04 Gerber Fmt 4.5, Leading zero omitted, Abs format (unit mm)*
G04 Created by KiCad (PCBNEW 9.0.6) date 2026-02-17 17:24:49*
%MOMM*%
%LPD*%
G01*
G04 APERTURE LIST*
%ADD10C,0.060000*%
%ADD11C,0.050000*%
%ADD12C,0.200000*%
G04 APERTURE END LIST*
D10*
X15487009Y-8118130D02*
X15541693Y-7994553D01*
X13191184Y-6654712D02*
G75*
G02*
X13503490Y-6695761I-205704J-2773578D01*
G01*
X17682267Y-6666560D02*
G75*
G02*
X18748596Y-6959822I-63177J-2314990D01*
G01*
X19923490Y-8953500D02*
G75*
G02*
X19849538Y-9520581I-2322730J14540D01*
G01*
X12633184Y-12622181D02*
G75*
G02*
X11690411Y-11537748I8015206J7920201D01*
G01*
X14072398Y-6891686D02*
G75*
G02*
X14579793Y-7245554I-1068618J-2072944D01*
G01*
X16336297Y-14113336D02*
X15400184Y-14875187D01*
X12314286Y-6765707D02*
G75*
G02*
X12601991Y-6689417I732924J-2183353D01*
G01*
X11690412Y-11537748D02*
G75*
G02*
X11138841Y-10637216I4111558J3137488D01*
G01*
X15151879Y-15064173D02*
X14305184Y-14260701D01*
X15391661Y-8380086D02*
G75*
G02*
X15487008Y-8118130I1322189J-332924D01*
G01*
X15339636Y-8508166D02*
G75*
G02*
X15325920Y-8512723I-9896J6866D01*
G01*
X11138841Y-10637216D02*
G75*
G02*
X10816305Y-9688673I3788039J1817166D01*
G01*
X15765042Y-7610042D02*
G75*
G02*
X16603580Y-6901445I1833258J-1318988D01*
G01*
X14305184Y-14260701D02*
X12633184Y-12622181D01*
X19262960Y-10875492D02*
G75*
G02*
X18774263Y-11595250I-7285450J4420852D01*
G01*
X15325919Y-8512726D02*
G75*
G02*
X15311381Y-8499589I7721J23156D01*
G01*
X15400184Y-14875187D02*
X15151879Y-15064173D01*
X11034179Y-7835379D02*
G75*
G02*
X11370038Y-7373437I2043241J-1132491D01*
G01*
D11*
X19923760Y-8953500D02*
X19923490Y-8938959D01*
D10*
X10816305Y-9688673D02*
G75*
G02*
X10767773Y-9227751I2197815J464433D01*
G01*
X14978804Y-7722608D02*
G75*
G02*
X15230459Y-8278983I-1854874J-1174082D01*
G01*
X10767773Y-9227751D02*
X10759373Y-8996826D01*
X10771475Y-8622649D02*
G75*
G02*
X10814253Y-8371986I1236295J-82001D01*
G01*
X19624728Y-10175254D02*
G75*
G02*
X19262959Y-10875492I-5280988J2284784D01*
G01*
X15541693Y-7994553D02*
X15652602Y-7784633D01*
X11370038Y-7373437D02*
G75*
G02*
X11804451Y-7010671I1674522J-1563753D01*
G01*
X19552591Y-7713408D02*
G75*
G02*
X19704605Y-7992862I-1759171J-1138002D01*
G01*
X19704604Y-7992862D02*
G75*
G02*
X19822596Y-8308208I-2394874J-1075828D01*
G01*
X17273101Y-13251972D02*
X16336297Y-14113336D01*
X11804450Y-7010670D02*
G75*
G02*
X12314286Y-6765708I1237320J-1922170D01*
G01*
X15652602Y-7784633D02*
G75*
G02*
X15765042Y-7610042I1749298J-1003077D01*
G01*
X15257774Y-8365477D02*
X15285572Y-8439971D01*
X12892476Y-6652430D02*
G75*
G02*
X13191184Y-6654712I132194J-2247450D01*
G01*
X10814252Y-8371985D02*
G75*
G02*
X11034179Y-7835379I2390028J-666175D01*
G01*
X16603580Y-6901446D02*
G75*
G02*
X17682267Y-6666560I1015770J-2070494D01*
G01*
X14579793Y-7245554D02*
G75*
G02*
X14978804Y-7722608I-1593713J-1738386D01*
G01*
X18774263Y-11595250D02*
X17688409Y-12824485D01*
X15285572Y-8439971D02*
X15311382Y-8499589D01*
X19849494Y-9520570D02*
G75*
G02*
X19624728Y-10175254I-4321424J1117700D01*
G01*
X13503490Y-6695762D02*
G75*
G02*
X14072397Y-6891686I-389680J-2055448D01*
G01*
D11*
X17273101Y-13251972D02*
X17688409Y-12824485D01*
D10*
X18748596Y-6959822D02*
G75*
G02*
X19552592Y-7713407I-1114306J-1994528D01*
G01*
X15230458Y-8278983D02*
X15257774Y-8365477D01*
X15357539Y-8477866D02*
G75*
G02*
X15339636Y-8508167I-214619J106366D01*
G01*
X12601991Y-6689416D02*
G75*
G02*
X12892476Y-6652430I417209J-2117464D01*
G01*
X19822596Y-8308208D02*
G75*
G02*
X19898250Y-8632581I-2464096J-745712D01*
G01*
X10759373Y-8996826D02*
X10771475Y-8622649D01*
X19898250Y-8632581D02*
G75*
G02*
X19923490Y-8938959I-1846770J-306369D01*
G01*
D11*
X15357539Y-8477866D02*
X15391661Y-8380086D01*
D12*
X11017150Y-15378657D02*
X11017150Y-15178657D01*
X11017150Y-15178657D02*
X11064769Y-15178657D01*
X11064769Y-15178657D02*
X11093341Y-15188180D01*
X11093341Y-15188180D02*
X11112388Y-15207228D01*
X11112388Y-15207228D02*
X11121912Y-15226276D01*
X11121912Y-15226276D02*
X11131436Y-15264371D01*
X11131436Y-15264371D02*
X11131436Y-15292942D01*
X11131436Y-15292942D02*
X11121912Y-15331037D01*
X11121912Y-15331037D02*
X11112388Y-15350085D01*
X11112388Y-15350085D02*
X11093341Y-15369133D01*
X11093341Y-15369133D02*
X11064769Y-15378657D01*
X11064769Y-15378657D02*
X11017150Y-15378657D01*
X11217150Y-15378657D02*
X11217150Y-15245323D01*
X11217150Y-15283418D02*
X11226674Y-15264371D01*
X11226674Y-15264371D02*
X11236198Y-15254847D01*
X11236198Y-15254847D02*
X11255245Y-15245323D01*
X11255245Y-15245323D02*
X11274293Y-15245323D01*
X11340960Y-15378657D02*
X11340960Y-15245323D01*
X11340960Y-15178657D02*
X11331436Y-15188180D01*
X11331436Y-15188180D02*
X11340960Y-15197704D01*
X11340960Y-15197704D02*
X11350483Y-15188180D01*
X11350483Y-15188180D02*
X11340960Y-15178657D01*
X11340960Y-15178657D02*
X11340960Y-15197704D01*
X11464769Y-15378657D02*
X11445721Y-15369133D01*
X11445721Y-15369133D02*
X11436198Y-15350085D01*
X11436198Y-15350085D02*
X11436198Y-15178657D01*
X11569531Y-15378657D02*
X11550483Y-15369133D01*
X11550483Y-15369133D02*
X11540960Y-15350085D01*
X11540960Y-15350085D02*
X11540960Y-15178657D01*
X11798102Y-15378657D02*
X11798102Y-15178657D01*
X11798102Y-15178657D02*
X11864769Y-15321514D01*
X11864769Y-15321514D02*
X11931436Y-15178657D01*
X11931436Y-15178657D02*
X11931436Y-15378657D01*
X12112388Y-15378657D02*
X12112388Y-15273895D01*
X12112388Y-15273895D02*
X12102864Y-15254847D01*
X12102864Y-15254847D02*
X12083817Y-15245323D01*
X12083817Y-15245323D02*
X12045721Y-15245323D01*
X12045721Y-15245323D02*
X12026674Y-15254847D01*
X12112388Y-15369133D02*
X12093341Y-15378657D01*
X12093341Y-15378657D02*
X12045721Y-15378657D01*
X12045721Y-15378657D02*
X12026674Y-15369133D01*
X12026674Y-15369133D02*
X12017150Y-15350085D01*
X12017150Y-15350085D02*
X12017150Y-15331037D01*
X12017150Y-15331037D02*
X12026674Y-15311990D01*
X12026674Y-15311990D02*
X12045721Y-15302466D01*
X12045721Y-15302466D02*
X12093341Y-15302466D01*
X12093341Y-15302466D02*
X12112388Y-15292942D01*
X12207626Y-15245323D02*
X12207626Y-15445323D01*
X12207626Y-15254847D02*
X12226674Y-15245323D01*
X12226674Y-15245323D02*
X12264769Y-15245323D01*
X12264769Y-15245323D02*
X12283817Y-15254847D01*
X12283817Y-15254847D02*
X12293341Y-15264371D01*
X12293341Y-15264371D02*
X12302864Y-15283418D01*
X12302864Y-15283418D02*
X12302864Y-15340561D01*
X12302864Y-15340561D02*
X12293341Y-15359609D01*
X12293341Y-15359609D02*
X12283817Y-15369133D01*
X12283817Y-15369133D02*
X12264769Y-15378657D01*
X12264769Y-15378657D02*
X12226674Y-15378657D01*
X12226674Y-15378657D02*
X12207626Y-15369133D01*
X12388579Y-15359609D02*
X12398102Y-15369133D01*
X12398102Y-15369133D02*
X12388579Y-15378657D01*
X12388579Y-15378657D02*
X12379055Y-15369133D01*
X12379055Y-15369133D02*
X12388579Y-15359609D01*
X12388579Y-15359609D02*
X12388579Y-15378657D01*
X12388579Y-15254847D02*
X12398102Y-15264371D01*
X12398102Y-15264371D02*
X12388579Y-15273895D01*
X12388579Y-15273895D02*
X12379055Y-15264371D01*
X12379055Y-15264371D02*
X12388579Y-15254847D01*
X12388579Y-15254847D02*
X12388579Y-15273895D01*
M02*
