M48
; DRILL file {KiCad 9.0.6} date 2026-02-17T17:24:49+0530
; FORMAT={-:-/ absolute / metric / decimal}
; #@! TF.CreationDate,2026-02-17T17:24:49+05:30
; #@! TF.GenerationSoftware,Kicad,Pcbnew,9.0.6
; #@! TF.FileFunction,Plated,1,2,PTH
FMAT,2
METRIC
; #@! TA.AperFunction,Plated,PTH,ComponentDrill
T1C0.800
; #@! TA.AperFunction,Plated,PTH,ComponentDrill
T2C0.850
; #@! TA.AperFunction,Plated,PTH,ComponentDrill
T3C0.900
; #@! TA.AperFunction,Plated,PTH,ComponentDrill
T4C1.000
%
G90
G05
T1
X130.815Y-92.71
X130.815Y-95.25
X130.815Y-97.79
X130.815Y-100.33
X130.815Y-102.87
X130.815Y-105.41
X130.815Y-107.95
X130.815Y-110.49
X138.435Y-92.71
X138.435Y-95.25
X138.435Y-97.79
X138.435Y-100.33
X138.435Y-102.87
X138.435Y-105.41
X138.435Y-107.95
X138.435Y-110.49
X144.78Y-99.06
X144.78Y-101.6
X144.78Y-104.14
X144.78Y-106.68
X144.78Y-114.3
X150.4Y-140.335
X152.4Y-99.06
X152.4Y-101.6
X152.4Y-104.14
X152.4Y-106.68
X152.4Y-114.3
X152.4Y-140.335
X156.21Y-114.3
X163.83Y-114.3
T2
X158.115Y-103.505
X160.655Y-103.505
X163.195Y-103.505
T3
X113.03Y-85.09
X115.57Y-85.09
X116.84Y-105.41
X119.38Y-105.41
X127.0Y-72.39
X129.54Y-72.39
X131.445Y-124.46
X133.985Y-124.46
X143.51Y-81.28
X146.05Y-81.28
X161.29Y-81.28
X163.83Y-81.28
X170.815Y-124.46
X173.355Y-72.39
X173.355Y-124.46
X175.895Y-72.39
X186.055Y-105.41
X188.595Y-105.41
X189.865Y-85.09
X192.405Y-85.09
T4
X153.035Y-128.265
X153.035Y-130.805
X158.155Y-95.25
X163.155Y-95.25
M30
