%TF.GenerationSoftware,KiCad,Pcbnew,9.0.6*%
%TF.CreationDate,2026-02-17T17:24:45+05:30*%
%TF.ProjectId,blinky,626c696e-6b79-42e6-9b69-6361645f7063,rev?*%
%TF.SameCoordinates,Original*%
%TF.FileFunction,Other,User*%
%FSLAX46Y46*%
G04 Gerber Fmt 4.6, Leading zero omitted, Abs format (unit mm)*
G04 Created by KiCad (PCBNEW 9.0.6) date 2026-02-17 17:24:45*
%MOMM*%
%LPD*%
G01*
G04 APERTURE LIST*
%ADD10C,0.050000*%
G04 APERTURE END LIST*
D10*
%TO.C,D5*%
X135135000Y-126670000D02*
X135135000Y-122250000D01*
X135135000Y-122250000D02*
X130295000Y-122250000D01*
X130295000Y-126670000D02*
X135135000Y-126670000D01*
X130295000Y-122250000D02*
X130295000Y-126670000D01*
%TO.C,D9*%
X177045000Y-74600000D02*
X177045000Y-70180000D01*
X177045000Y-70180000D02*
X172205000Y-70180000D01*
X172205000Y-74600000D02*
X177045000Y-74600000D01*
X172205000Y-70180000D02*
X172205000Y-74600000D01*
%TO.C,RV1*%
X155555000Y-100755000D02*
X165755000Y-100755000D01*
X165755000Y-106255000D01*
X155555000Y-106255000D01*
X155555000Y-100755000D01*
%TO.C,D7*%
X189745000Y-107620000D02*
X189745000Y-103200000D01*
X189745000Y-103200000D02*
X184905000Y-103200000D01*
X184905000Y-107620000D02*
X189745000Y-107620000D01*
X184905000Y-103200000D02*
X184905000Y-107620000D01*
%TO.C,D8*%
X193555000Y-87300000D02*
X193555000Y-82880000D01*
X193555000Y-82880000D02*
X188715000Y-82880000D01*
X188715000Y-87300000D02*
X193555000Y-87300000D01*
X188715000Y-82880000D02*
X188715000Y-87300000D01*
%TO.C,D10*%
X164980000Y-83490000D02*
X164980000Y-79070000D01*
X164980000Y-79070000D02*
X160140000Y-79070000D01*
X160140000Y-83490000D02*
X164980000Y-83490000D01*
X160140000Y-79070000D02*
X160140000Y-83490000D01*
%TO.C,R1*%
X143730000Y-112800000D02*
X153450000Y-112800000D01*
X153450000Y-115800000D01*
X143730000Y-115800000D01*
X143730000Y-112800000D01*
%TO.C,D1*%
X147200000Y-83490000D02*
X147200000Y-79070000D01*
X147200000Y-79070000D02*
X142360000Y-79070000D01*
X142360000Y-83490000D02*
X147200000Y-83490000D01*
X142360000Y-79070000D02*
X142360000Y-83490000D01*
%TO.C,D3*%
X116720000Y-87300000D02*
X116720000Y-82880000D01*
X116720000Y-82880000D02*
X111880000Y-82880000D01*
X111880000Y-87300000D02*
X116720000Y-87300000D01*
X111880000Y-82880000D02*
X111880000Y-87300000D01*
%TO.C,D2*%
X130690000Y-74600000D02*
X130690000Y-70180000D01*
X130690000Y-70180000D02*
X125850000Y-70180000D01*
X125850000Y-74600000D02*
X130690000Y-74600000D01*
X125850000Y-70180000D02*
X125850000Y-74600000D01*
%TO.C,C2*%
X156655000Y-93750000D02*
X164655000Y-93750000D01*
X164655000Y-96750000D01*
X156655000Y-96750000D01*
X156655000Y-93750000D01*
%TO.C,C1*%
X154150000Y-140335000D02*
G75*
G02*
X148650000Y-140335000I-2750000J0D01*
G01*
X148650000Y-140335000D02*
G75*
G02*
X154150000Y-140335000I2750000J0D01*
G01*
%TO.C,R2*%
X155160000Y-112800000D02*
X164880000Y-112800000D01*
X164880000Y-115800000D01*
X155160000Y-115800000D01*
X155160000Y-112800000D01*
%TO.C,D4*%
X120530000Y-107620000D02*
X120530000Y-103200000D01*
X120530000Y-103200000D02*
X115690000Y-103200000D01*
X115690000Y-107620000D02*
X120530000Y-107620000D01*
X115690000Y-103200000D02*
X115690000Y-107620000D01*
%TO.C,U1*%
X143720000Y-97540000D02*
X153450000Y-97540000D01*
X153450000Y-108200000D01*
X143720000Y-108200000D01*
X143720000Y-97540000D01*
%TO.C,D6*%
X174505000Y-126670000D02*
X174505000Y-122250000D01*
X174505000Y-122250000D02*
X169665000Y-122250000D01*
X169665000Y-126670000D02*
X174505000Y-126670000D01*
X169665000Y-122250000D02*
X169665000Y-126670000D01*
%TO.C,J1*%
X154805000Y-132585000D02*
X154805000Y-126495000D01*
X154805000Y-126495000D02*
X151265000Y-126495000D01*
X151265000Y-132585000D02*
X154805000Y-132585000D01*
X151265000Y-126495000D02*
X151265000Y-132585000D01*
%TO.C,U2*%
X129755000Y-91190000D02*
X139485000Y-91190000D01*
X139485000Y-112010000D01*
X129755000Y-112010000D01*
X129755000Y-91190000D01*
%TD*%
M02*
